<svg width="1440" height="846" viewBox="0 0 1440 846" fill="none" xmlns="http://www.w3.org/2000/svg">
<g clip-path="url(#clip0_1_3)">
<rect width="1440" height="846" fill="white"/>
<path d="M655.527 -286.122C667.278 -289.688 679.491 -291.5 691.771 -291.5H1769.98C1949.07 -291.5 2094.25 -146.32 2094.25 32.7679V220.737C2094.25 369.922 1939.49 468.76 1804.14 406.017V406.017C1726.91 370.217 1635.58 386.075 1574.94 445.813L1460.34 558.702C1447.42 571.426 1437.32 586.718 1430.69 603.591L1413.53 647.238C1383.29 724.166 1279.77 736.875 1231.81 669.548V669.548C1183.13 601.197 1077.73 615.563 1049.12 694.451L1031.06 744.23C1002.14 823.974 896.076 839.424 845.604 771.246L837.994 760.966C811.338 724.959 814.736 674.933 846.017 642.861L928.387 558.409C963.608 522.298 932.397 462.162 882.594 470.18V470.18C879.206 470.725 875.88 471.603 872.664 472.799L832.449 487.758C674.553 546.493 532.896 370.222 624.235 228.666V228.666C682.459 138.428 646.498 17.5226 548.421 -26.2255L151 -203.5L250.53 -159.104C268.133 -151.251 259.716 -124.722 240.806 -128.455V-128.455C224.277 -131.717 223.12 -154.918 239.241 -159.81L655.527 -286.122Z" fill="#00AE87"/>
<path d="M857.33 -453.104C875.676 -458.671 894.743 -461.5 913.915 -461.5H1981.73C2160.82 -461.5 2306 -316.32 2306 -137.232V50.7368C2306 199.922 2151.24 298.76 2015.89 236.017V236.017C1938.66 200.217 1847.33 216.075 1786.69 275.813L1672.09 388.702C1659.17 401.426 1649.07 416.718 1642.44 433.591L1610.48 514.876C1586.61 575.607 1504.89 585.64 1467.03 532.489L1455.55 516.377C1413.95 457.971 1321.99 485.148 1318.83 556.784V556.784C1315.97 621.451 1238.31 652.685 1191.47 608.007L1121.55 541.306C1053.47 476.367 1083.83 361.859 1175.14 339.179L1510 256L1067.25 338L823.013 375.899C726.841 390.822 671.404 270.288 745.324 206.982L800.546 159.69C834.005 131.035 822.982 76.7749 780.993 63.4476L665.457 26.7756C611.724 9.72034 629.931 -70.4355 685.76 -62.6036V-62.6036C737.368 -55.3636 759.322 -126 712.702 -149.29L556.441 -227.352C496.152 -257.47 503.619 -345.778 568.108 -365.346L857.33 -453.104Z" fill="#005845"/>
</g>
<defs>
<clipPath id="clip0_1_3">
<rect width="1440" height="846" fill="white"/>
</clipPath>
</defs>
</svg>
