<svg width="802" height="561" viewBox="0 0 802 561" fill="none" xmlns="http://www.w3.org/2000/svg">
<mask id="mask0_0_1" style="mask-type:luminance" maskUnits="userSpaceOnUse" x="555" y="237" width="207" height="207">
<path d="M625.989 372.635C608.143 354.455 608.415 325.248 626.597 307.403C644.779 289.556 673.985 289.829 691.83 308.011C709.677 326.192 709.403 355.399 691.222 373.243C673.041 391.088 643.835 390.816 625.989 372.635ZM734.87 385.981C739.171 378.837 742.371 371.211 744.479 363.352L761.487 360.093L761.663 341.281L761.838 322.468L744.894 318.893C742.933 310.996 739.875 303.312 735.709 296.088L745.423 281.769L732.243 268.343L719.066 254.916L704.567 264.363C697.423 260.061 689.798 256.861 681.939 254.753L678.679 237.745L659.867 237.569L641.055 237.395L637.479 254.339C629.582 256.3 621.899 259.357 614.675 263.524L600.355 253.809L586.929 266.988L573.503 280.167L582.95 294.665C578.647 301.809 575.447 309.433 573.341 317.293L556.331 320.553L556.157 339.365L555.981 358.177L572.926 361.752C574.886 369.649 577.945 377.333 582.111 384.557L572.397 398.876L585.574 412.303L598.753 425.731L613.251 416.284C620.397 420.584 628.021 423.785 635.881 425.893L639.139 442.901L657.953 443.076L676.765 443.252L680.339 426.305C688.237 424.347 695.921 421.289 703.143 417.121L717.462 426.837L730.89 413.659L744.317 400.48L734.87 385.981Z" fill="white"/>
</mask>
<g mask="url(#mask0_0_1)">
<path d="M625.989 372.635C608.143 354.455 608.415 325.248 626.597 307.403C644.779 289.556 673.985 289.829 691.83 308.011C709.677 326.192 709.403 355.399 691.222 373.243C673.041 391.088 643.835 390.816 625.989 372.635ZM734.87 385.981C739.171 378.837 742.371 371.211 744.479 363.352L761.487 360.093L761.663 341.281L761.838 322.468L744.894 318.893C742.933 310.996 739.875 303.312 735.709 296.088L745.423 281.769L732.243 268.343L719.066 254.916L704.567 264.363C697.423 260.061 689.798 256.861 681.939 254.753L678.679 237.745L659.867 237.569L641.055 237.395L637.479 254.339C629.582 256.3 621.899 259.357 614.675 263.524L600.355 253.809L586.929 266.988L573.503 280.167L582.95 294.665C578.647 301.809 575.447 309.433 573.341 317.293L556.331 320.553L556.157 339.365L555.981 358.177L572.926 361.752C574.886 369.649 577.945 377.333 582.111 384.557L572.397 398.876L585.574 412.303L598.753 425.731L613.251 416.284C620.397 420.584 628.021 423.785 635.881 425.893L639.139 442.901L657.953 443.076L676.765 443.252L680.339 426.305C688.237 424.347 695.921 421.289 703.143 417.121L717.462 426.837L730.89 413.659L744.317 400.48L734.87 385.981Z" fill="url(#paint0_linear_0_1)"/>
</g>
<mask id="mask1_0_1" style="mask-type:luminance" maskUnits="userSpaceOnUse" x="150" y="128" width="156" height="156">
<path d="M206.211 232.484C191.567 220.341 189.542 198.625 201.685 183.983C213.829 169.339 235.543 167.312 250.186 179.456C264.831 191.599 266.857 213.315 254.714 227.957C242.57 242.6 220.855 244.627 206.211 232.484ZM288.109 234.088C290.758 228.453 292.553 222.544 293.518 216.545L305.903 212.827L304.598 198.84L303.293 184.852L290.434 183.489C288.374 177.772 285.517 172.299 281.87 167.251L287.994 155.873L277.179 146.905L266.366 137.937L256.318 146.061C250.682 143.411 244.774 141.616 238.775 140.651L235.057 128.265L221.069 129.571L207.081 130.876L205.719 143.736C200.002 145.795 194.527 148.652 189.481 152.299L178.103 146.176L169.134 156.989L160.167 167.803L168.29 177.851C165.641 183.487 163.846 189.395 162.881 195.395L150.495 199.113L151.799 213.1L153.106 227.088L165.965 228.451C168.025 234.167 170.882 239.641 174.529 244.688L168.405 256.067L179.219 265.035L190.033 274.001L200.081 265.879C205.717 268.528 211.625 270.323 217.623 271.289L221.343 283.675L235.33 282.369L249.318 281.064L250.679 268.204C256.397 266.145 261.87 263.288 266.918 259.64L278.295 265.764L287.263 254.951L296.231 244.136L288.109 234.088Z" fill="white"/>
</mask>
<g mask="url(#mask1_0_1)">
<path d="M206.211 232.484C191.567 220.341 189.542 198.625 201.685 183.983C213.829 169.339 235.543 167.312 250.186 179.456C264.831 191.599 266.857 213.315 254.714 227.957C242.57 242.6 220.855 244.627 206.211 232.484ZM288.109 234.088C290.758 228.453 292.553 222.544 293.518 216.545L305.903 212.827L304.598 198.84L303.293 184.852L290.434 183.489C288.374 177.772 285.517 172.299 281.87 167.251L287.994 155.873L277.179 146.905L266.366 137.937L256.318 146.061C250.682 143.411 244.774 141.616 238.775 140.651L235.057 128.265L221.069 129.571L207.081 130.876L205.719 143.736C200.002 145.795 194.527 148.652 189.481 152.299L178.103 146.176L169.134 156.989L160.167 167.803L168.29 177.851C165.641 183.487 163.846 189.395 162.881 195.395L150.495 199.113L151.799 213.1L153.106 227.088L165.965 228.451C168.025 234.167 170.882 239.641 174.529 244.688L168.405 256.067L179.219 265.035L190.033 274.001L200.081 265.879C205.717 268.528 211.625 270.323 217.623 271.289L221.343 283.675L235.33 282.369L249.318 281.064L250.679 268.204C256.397 266.145 261.87 263.288 266.918 259.64L278.295 265.764L287.263 254.951L296.231 244.136L288.109 234.088Z" fill="url(#paint1_linear_0_1)"/>
</g>
<path d="M703.19 516.993H702.011V433.172C702.011 414.52 686.838 399.348 668.186 399.348H581.946C562.645 399.348 546.942 383.645 546.942 364.345V207.665C546.942 189.015 531.769 173.843 513.119 173.843H293.218V172.663H513.119C532.419 172.663 548.122 188.365 548.122 207.665V364.345C548.122 382.995 563.294 398.169 581.946 398.169H668.186C687.489 398.169 703.19 413.871 703.19 433.172V516.993Z" fill="#64A4FF"/>
<path d="M349.582 119.572C349.582 119.572 362.891 172.569 330.937 187.057C298.982 201.544 305.103 175.017 305.103 175.017C305.103 175.017 291.997 171.376 327.666 151.153C344.478 141.623 349.582 119.572 349.582 119.572Z" fill="#BBD070"/>
<path d="M433.267 124.197C433.267 124.197 439.818 170.393 379.343 190.363C318.866 210.331 310.255 235.661 310.255 235.661C310.255 235.661 308.446 133.272 433.267 124.197Z" fill="#97A43C"/>
<path d="M309.985 216.847C292.053 210.003 334.677 173.303 367.434 174.293C400.191 175.285 422.39 187.408 444.331 182.285C444.331 182.285 398.289 250.551 309.985 216.847Z" fill="#48753A"/>
<path d="M224.758 306.383C224.947 293.347 242.306 269.099 242.306 269.099C242.306 269.099 243.109 268.757 243.121 268.792C243.131 268.804 244.015 268.668 244.015 268.68C244.034 268.68 246.713 266.125 246.73 266.125C247.367 268.444 253.118 301.192 254.527 320.256C238.225 317.053 224.663 312.6 224.758 306.383ZM370.233 247.511C371.265 233.579 371.983 220.548 372.391 208.397C369.029 206.616 364.989 204.535 361.755 203C351.746 198.235 337.802 191.817 328.854 187.712C323.617 185.305 318.485 183.547 318.485 183.547C318.485 183.547 282.723 180.12 279.821 180.303C278.905 180.356 274.435 181.913 268.571 184.149C255.89 188.961 231.441 198.76 227.549 201.556C221.839 205.643 201.411 305.776 200.869 312.576C200.339 319.181 228.651 328.22 254.87 335.144C254.851 345.295 254.646 359.516 254.415 372.499C254.381 374.717 254.339 376.893 254.297 379.005H369.022C368.869 376.776 368.734 374.575 368.622 372.499C368.61 372.221 368.593 371.951 368.581 371.679C368.143 362.885 366.434 347.136 366.87 331.799C366.87 331.799 366.593 315.631 368.197 308.672C368.374 277.94 370.233 247.511 370.233 247.511Z" fill="#DBD8E3"/>
<path d="M372.355 372.499C371.601 367.067 370.887 361.639 370.243 356.325C370.243 356.296 370.233 356.279 370.233 356.248C370.025 354.479 369.813 352.733 369.613 350.993C369.601 350.909 369.595 350.816 369.583 350.716C368.745 343.397 368.05 336.376 367.549 329.948C367.171 325.021 367.513 320.209 368.19 315.503C370.185 282.629 371.177 247.971 371.177 247.971C372.226 233.785 372.827 220.525 373.229 208.168C373.229 208.168 328.323 186.945 324.253 185.729C324.253 185.729 332.771 205.732 339.159 250.436C341.613 267.607 346.161 296.509 349.463 326.008V326.013C351.25 341.933 354.601 358.148 357.149 372.499C357.538 374.717 357.91 376.888 358.251 379.005H373.282C372.962 376.841 372.657 374.671 372.355 372.499Z" fill="#323657"/>
<path d="M243.569 294.543C243.174 279.584 243.243 269.147 243.243 269.147C244.725 274.272 246.771 288.917 248.575 303.475C242.507 300.42 243.646 297.564 243.569 294.543ZM297.593 319.695C299.362 303.073 300.955 286.487 300.187 277.399C293.994 204.328 276.47 184.987 273.927 182.155C271.963 182.904 264.485 185.712 262.295 186.579C250.31 191.304 225.879 199.963 222.587 202.328C216.878 206.416 194.369 311.392 193.69 318.18C193.235 322.769 222.611 332.359 252.581 340.919C252.303 349.135 253.081 360.725 250.35 372.828C249.873 374.975 249.166 376.331 249.055 379.169L290.833 379.005C291.086 376.847 291.351 374.681 291.618 372.499C292.413 365.969 293.245 359.281 294.07 352.173C306.599 355.416 315.117 357.505 315.117 357.505C315.117 357.505 326.885 337.609 330.299 329.553C330.883 328.179 315.735 324.539 297.593 319.695Z" fill="#323657"/>
<path d="M277.945 181.448C277.945 181.448 282.493 172.853 281.235 148.452C280.889 141.692 316.745 164.484 316.745 164.484C316.745 164.484 316.621 166.813 316.543 169.957C316.503 171.267 316.479 172.7 316.479 174.175C316.479 174.581 316.485 174.988 316.485 175.396C316.491 176.063 316.497 176.723 316.509 177.384C316.526 178.204 316.557 179.005 316.597 179.779C316.638 180.657 316.697 181.488 316.781 182.249C316.927 183.724 317.794 186.325 318.107 187.04C319.753 190.832 291.369 191.051 277.945 181.448Z" fill="#EEA987"/>
<path d="M308.006 196.968L314.614 205.847C314.614 205.847 310.742 211.031 303.866 207.203L308.006 196.968Z" fill="#E8734D"/>
<path d="M312.846 206.207C312.846 206.207 337.057 265.339 331.891 340.449L324.255 354.308L315.645 342.505C315.645 342.505 314.255 242.751 307.383 205.969L312.846 206.207Z" fill="#E8734D"/>
<path d="M315.081 188.689L308.006 196.968C308.006 196.968 296.65 194.768 293.317 188.836C289.982 182.904 315.081 188.689 315.081 188.689Z" fill="#EEA987"/>
<path d="M316.703 181.445C316.703 181.445 315.882 187.756 308.006 196.968L316.603 208.519L321.257 184.556L316.703 181.445Z" fill="#C4C1CC"/>
<path d="M280.105 173.856C280.105 173.856 296.523 192.428 308.006 196.968L302.666 210.175L276.461 181.268L280.105 173.856Z" fill="#C4C1CC"/>
<path d="M448.901 341.879C448.901 341.879 427.106 320.741 412.811 317.227C406.203 315.6 397.499 306.477 389.229 295.753C386.503 292.223 383.829 288.516 381.285 284.848C381.278 284.841 381.278 284.833 381.278 284.833C371.13 270.181 363.179 256.139 363.179 256.139C363.179 256.139 333.185 220.989 357.254 205.32C357.254 205.32 367.569 205.097 373.227 208.171C379.045 211.329 391.454 237.228 393.558 241.815C395.662 246.395 418.455 288.993 419.981 289.951C421.509 290.907 424.051 294.409 433.171 299.32C444.337 305.332 461.877 322.927 461.877 322.927L448.901 341.879Z" fill="#323657"/>
<path d="M344.283 366.341C344.283 366.341 341.238 366.219 339.934 365.515C339.934 365.515 337.657 364.055 335.975 363.115C335.441 362.816 334.967 362.569 334.646 362.443C333.302 361.909 330.193 361.141 327.326 358.955C324.459 356.771 315.117 348.029 315.117 348.029L321.155 338.747L323.943 329.555C323.943 329.555 345.726 331.721 348.631 333.448C348.914 333.617 349.187 333.796 349.431 333.983C351.75 335.683 352.761 337.924 353.877 338.955C354.283 339.336 358.077 343.397 357.865 345.044C357.573 347.331 356.443 348.797 355.025 349.492C355.025 349.492 354.257 353.943 351.955 355.933C351.955 355.933 351.378 360.064 347.811 361.723C347.811 361.723 346.757 365.847 344.283 366.341Z" fill="#EFAA88"/>
<path d="M309.599 85.4959C309.599 85.4959 348.97 76.0053 340.678 125.852C332.383 175.7 322.941 179.745 298.957 169.808C274.973 159.869 276.639 127.985 275.211 112.384C273.782 96.7839 297.005 86.2239 309.599 85.4959Z" fill="#EEA886"/>
<path d="M288.914 120.017C288.33 115.639 279.637 114.159 279.035 120.744C278.434 127.331 283.241 138.804 286.514 137.62C289.787 136.436 289.722 126.055 288.914 120.017Z" fill="#EEA886"/>
<path d="M277.511 137.867C277.511 137.867 278.299 122.188 284.013 121.615C289.729 121.041 290.701 127.337 290.701 127.337L296.494 128.344C296.494 128.344 294.466 114.641 300.143 112.159C305.822 109.676 337.267 119.173 341.794 115.076C346.321 110.98 343.754 83.1626 335.405 79.4732C327.057 75.7839 304.027 67.5799 287.413 79.1853C287.413 79.1853 274.31 77.8853 272.525 88.4706C270.739 99.0546 273.839 130.069 277.511 137.867Z" fill="#16202E"/>
<path d="M331.373 329.555L315.117 357.504C315.117 357.504 272.051 346.407 262.003 343.572L284.973 316.233C284.973 316.233 318.839 323.971 331.373 329.555Z" fill="#323657"/>
<path d="M316.597 179.779H316.591C295.474 177.625 287.289 161.369 287.289 161.369C300.57 174.535 316.479 174.175 316.479 174.175C316.479 174.581 316.485 174.988 316.485 175.396C316.491 176.063 316.497 176.723 316.509 177.384C316.526 178.204 316.557 179.005 316.597 179.779Z" fill="#A77860"/>
<path d="M604.726 435.909L604.723 435.911C604.289 436.069 603.825 436.165 603.342 436.192C603.234 436.197 603.126 436.199 603.018 436.199C602.562 436.192 602.122 436.12 601.705 435.995C601.127 435.823 600.595 435.549 600.131 435.189C599.962 435.06 599.803 434.915 599.653 434.764C598.781 433.879 598.246 432.66 598.265 431.32C598.269 430.971 598.313 430.632 598.389 430.304C598.425 430.145 598.465 429.989 598.517 429.837C599.169 427.912 601.001 426.537 603.142 426.565C604.681 426.584 606.043 427.325 606.909 428.459C607.542 429.288 607.911 430.323 607.898 431.444C607.871 433.504 606.555 435.245 604.726 435.909ZM608.214 427.516C607.058 425.984 605.231 424.983 603.163 424.959C600.307 424.92 597.862 426.753 596.994 429.321C596.783 429.943 596.666 430.607 596.657 431.299C596.646 432.105 596.787 432.877 597.049 433.592C597.466 434.736 598.201 435.728 599.146 436.461C600.087 437.191 601.235 437.665 602.491 437.779C602.658 437.792 602.827 437.804 602.998 437.805C603.105 437.807 603.211 437.803 603.317 437.799C603.353 437.797 603.391 437.799 603.429 437.797C604.073 437.763 604.693 437.632 605.275 437.421C607.714 436.536 609.469 434.213 609.506 431.464C609.525 429.984 609.041 428.615 608.214 427.516Z" fill="#4DA8F2"/>
<path d="M361.931 306.599C386.407 331.793 418.745 363.523 418.745 363.523L431.386 339.525C431.386 339.525 402.663 305.853 383.191 283.385C377.223 286.312 366.266 293.293 361.931 306.599Z" fill="#EEA886"/>
<path d="M346.814 340.476C346.814 340.476 353.403 343.66 355.123 345.077C356.845 346.497 363.815 351.716 365.506 352.944C367.194 354.172 362.957 357.664 350.493 352.265C338.026 346.865 346.814 340.476 346.814 340.476Z" fill="#EEA886"/>
<path d="M347.39 268.363L335.905 375.141H487.071L498.557 268.363H347.39Z" fill="#FFC955"/>
<path d="M344.662 369.032H494.642L506.001 263.433H356.019L344.662 369.032ZM495.701 370.213H343.349L354.959 262.255H507.313L495.701 370.213Z" fill="#FFC955"/>
<path d="M323.875 365.535H349.123V375.141H323.875V365.535Z" fill="#FFC955"/>
<mask id="mask2_0_1" style="mask-type:luminance" maskUnits="userSpaceOnUse" x="80" y="374" width="412" height="8">
<path d="M80.986 374.92V381.425H491.814V374.92H80.986Z" fill="white"/>
</mask>
<g mask="url(#mask2_0_1)">
<path d="M87.3062 374.92V381.425H80.986V374.92H87.3062Z" fill="#96CBFF"/>
<path d="M93.6265 374.92V381.425H87.3063V374.92H93.6265Z" fill="#95CAFF"/>
<path d="M99.9469 374.92V381.425H93.6265V374.92H99.9469Z" fill="#94C9FF"/>
<path d="M106.267 374.92V381.425H99.9469V374.92H106.267Z" fill="#93C9FF"/>
<path d="M112.587 374.92V381.425H106.267V374.92H112.587Z" fill="#92C8FF"/>
<path d="M118.907 374.92V381.425H112.587V374.92H118.907Z" fill="#91C7FF"/>
<path d="M125.229 374.92V381.425H118.907V374.92H125.229Z" fill="#90C6FF"/>
<path d="M131.549 374.92V381.425H125.229V374.92H131.549Z" fill="#8FC6FF"/>
<path d="M137.87 374.92V381.425H131.549V374.92H137.87Z" fill="#8EC5FF"/>
<path d="M144.19 374.92V381.425H137.87V374.92H144.19Z" fill="#8DC4FF"/>
<path d="M150.511 374.92V381.425H144.19V374.92H150.511Z" fill="#8CC3FF"/>
<path d="M156.831 374.92V381.425H150.511V374.92H156.831Z" fill="#8BC2FF"/>
<path d="M163.151 374.92V381.425H156.831V374.92H163.151Z" fill="#8AC2FF"/>
<path d="M169.471 374.92V381.425H163.151V374.92H169.471Z" fill="#89C1FF"/>
<path d="M175.791 374.92V381.425H169.471V374.92H175.791Z" fill="#88C0FF"/>
<path d="M182.113 374.92V381.425H175.791V374.92H182.113Z" fill="#87BFFF"/>
<path d="M188.433 374.92V381.425H182.113V374.92H188.433Z" fill="#86BFFF"/>
<path d="M194.753 374.92V381.425H188.433V374.92H194.753Z" fill="#85BEFF"/>
<path d="M201.073 374.92V381.425H194.753V374.92H201.073Z" fill="#84BDFF"/>
<path d="M207.395 374.92V381.425H201.073V374.92H207.395Z" fill="#83BCFF"/>
<path d="M213.715 374.92V381.425H207.395V374.92H213.715Z" fill="#82BBFF"/>
<path d="M220.035 374.92V381.425H213.715V374.92H220.035Z" fill="#81BBFF"/>
<path d="M226.355 374.92V381.425H220.035V374.92H226.355Z" fill="#80BAFF"/>
<path d="M232.677 374.92V381.425H226.355V374.92H232.677Z" fill="#7FB9FF"/>
<path d="M238.997 374.92V381.425H232.677V374.92H238.997Z" fill="#7EB8FF"/>
<path d="M245.317 374.92V381.425H238.997V374.92H245.317Z" fill="#7DB7FF"/>
<path d="M251.637 374.92V381.425H245.317V374.92H251.637Z" fill="#7CB7FF"/>
<path d="M257.957 374.92V381.425H251.637V374.92H257.957Z" fill="#7BB6FF"/>
<path d="M264.278 374.92V381.425H257.957V374.92H264.278Z" fill="#7AB5FF"/>
<path d="M270.598 374.92V381.425H264.278V374.92H270.598Z" fill="#79B4FF"/>
<path d="M276.919 374.92V381.425H270.598V374.92H276.919Z" fill="#78B4FF"/>
<path d="M283.239 374.92V381.425H276.919V374.92H283.239Z" fill="#77B3FF"/>
<path d="M289.561 374.92V381.425H283.239V374.92H289.561Z" fill="#76B2FF"/>
<path d="M295.881 374.92V381.425H289.561V374.92H295.881Z" fill="#74B1FF"/>
<path d="M302.201 374.92V381.425H295.881V374.92H302.201Z" fill="#73B0FF"/>
<path d="M308.521 374.92V381.425H302.201V374.92H308.521Z" fill="#72B0FF"/>
<path d="M314.842 374.92V381.425H308.521V374.92H314.842Z" fill="#71AFFF"/>
<path d="M321.162 374.92V381.425H314.842V374.92H321.162Z" fill="#70AEFF"/>
<path d="M327.482 374.92V381.425H321.162V374.92H327.482Z" fill="#6FADFF"/>
<path d="M333.802 374.92V381.425H327.482V374.92H333.802Z" fill="#6EADFF"/>
<path d="M340.123 374.92V381.425H333.802V374.92H340.123Z" fill="#6DACFF"/>
<path d="M346.445 374.92V381.425H340.123V374.92H346.445Z" fill="#6CABFF"/>
<path d="M352.765 374.92V381.425H346.445V374.92H352.765Z" fill="#6BAAFF"/>
<path d="M359.085 374.92V381.425H352.765V374.92H359.085Z" fill="#6AA9FF"/>
<path d="M365.405 374.92V381.425H359.085V374.92H365.405Z" fill="#69A9FF"/>
<path d="M371.726 374.92V381.425H365.405V374.92H371.726Z" fill="#68A8FF"/>
<path d="M378.046 374.92V381.425H371.726V374.92H378.046Z" fill="#67A7FF"/>
<path d="M384.366 374.92V381.425H378.046V374.92H384.366Z" fill="#66A6FF"/>
<path d="M390.686 374.92V381.425H384.366V374.92H390.686Z" fill="#65A6FF"/>
<path d="M397.007 374.92V381.425H390.686V374.92H397.007Z" fill="#64A5FF"/>
<path d="M403.327 374.92V381.425H397.007V374.92H403.327Z" fill="#63A4FF"/>
<path d="M409.649 374.92V381.425H403.327V374.92H409.649Z" fill="#62A3FF"/>
<path d="M415.969 374.92V381.425H409.649V374.92H415.969Z" fill="#61A2FF"/>
<path d="M422.29 374.92V381.425H415.969V374.92H422.29Z" fill="#60A2FF"/>
<path d="M428.61 374.92V381.425H422.29V374.92H428.61Z" fill="#5FA1FF"/>
<path d="M434.93 374.92V381.425H428.61V374.92H434.93Z" fill="#5EA0FF"/>
<path d="M441.25 374.92V381.425H434.93V374.92H441.25Z" fill="#5D9FFF"/>
<path d="M447.57 374.92V381.425H441.25V374.92H447.57Z" fill="#5C9EFF"/>
<path d="M453.891 374.92V381.425H447.57V374.92H453.891Z" fill="#5B9EFF"/>
<path d="M460.211 374.92V381.425H453.891V374.92H460.211Z" fill="#5A9DFF"/>
<path d="M466.531 374.92V381.425H460.211V374.92H466.531Z" fill="#599CFF"/>
<path d="M472.851 374.92V381.425H466.531V374.92H472.851Z" fill="#589BFF"/>
<path d="M479.174 374.92V381.425H472.851V374.92H479.174Z" fill="#579BFF"/>
<path d="M485.494 374.92V381.425H479.174V374.92H485.494Z" fill="#569AFF"/>
<path d="M491.814 374.92V381.425H485.494V374.92H491.814Z" fill="#5599FF"/>
</g>
<path d="M742.867 520.246H386.919V513.74H742.867V520.246Z" fill="#FFC955"/>
<path d="M408.837 320.037C407.622 325.981 410.395 331.569 415.031 332.516C419.667 333.464 424.41 329.412 425.625 323.467C426.841 317.521 424.067 311.933 419.431 310.987C414.794 310.039 410.053 314.091 408.837 320.037Z" fill="#CFA345"/>
<path d="M697.141 277.713C697.141 277.713 700.627 283.625 702.101 284.591C704.098 285.901 702.846 287.227 701.898 287.227C700.949 287.228 696.101 287.575 695.033 286.363C693.965 285.152 693.435 281.519 692.442 280.569C691.449 279.619 690.422 275.843 692.926 274.924C695.138 274.113 697.141 277.713 697.141 277.713Z" fill="#6069A8"/>
<path d="M695.63 275.113C695.63 275.113 699.623 282.036 700.313 283.06C701.001 284.081 699.017 284.08 697.787 283.593C696.558 283.109 693.465 278.144 693.019 277.239C692.49 276.16 692.926 274.924 692.926 274.924L695.63 275.113Z" fill="#202338"/>
<path d="M691.585 278.839L692.507 285.936L692.995 285.957L692.843 280.851L691.585 278.839Z" fill="#6069A8"/>
<path d="M662.562 277.713C662.562 277.713 666.049 283.625 667.521 284.591C669.519 285.901 668.267 287.227 667.318 287.227C666.369 287.228 661.522 287.575 660.455 286.363C659.386 285.152 658.857 281.519 657.863 280.569C656.87 279.619 655.81 275.744 658.346 274.924C660.571 274.205 662.562 277.713 662.562 277.713Z" fill="#6069A8"/>
<path d="M661.262 275.128C661.262 275.128 665.046 282.036 665.734 283.06C666.422 284.081 664.438 284.08 663.209 283.593C661.978 283.109 658.886 278.144 658.442 277.239C657.911 276.16 658.346 274.924 658.346 274.924L661.262 275.128Z" fill="#202338"/>
<path d="M657.007 278.839L657.929 285.936L658.417 285.957L658.265 280.851L657.007 278.839Z" fill="#6069A8"/>
<path d="M647.091 223.917L678.646 238.296C678.646 238.296 682.169 239.441 682.563 243.352C683.794 255.559 692.926 274.924 692.926 274.924C695.855 276.357 695.63 275.113 695.63 275.113C693.785 269.187 691.537 244.761 690.734 234.94C690.566 232.86 690.459 231.435 690.438 230.98C690.422 230.671 690.082 230.264 689.498 229.791C685.169 226.28 667.351 219.011 667.351 219.011C653.974 218.672 647.091 223.917 647.091 223.917Z" fill="#202338"/>
<path d="M641.143 230.092C642.121 238.621 654.295 237.644 654.295 237.644H669.051C669.051 237.644 665.177 246.269 663.679 253.544C662.091 261.264 658.346 274.924 658.346 274.924C658.346 274.924 658.593 275.388 661.262 275.128C661.262 275.128 672.846 252.043 677.279 246.239C678.233 244.989 680.966 238.211 681.437 234.167C681.595 232.805 681.498 231.755 680.99 231.329C680.478 230.9 679.301 230.092 677.733 229.103C673.11 226.188 665.083 221.701 660.611 220.696C654.622 219.349 645.147 216.827 645.147 216.827C645.147 216.827 640.167 221.563 641.143 230.092Z" fill="#202338"/>
<path d="M651.186 164.396C651.186 164.396 648.977 160.203 650.054 155.737C651.13 151.272 655.274 146.823 661.341 148.865C667.407 150.909 672.311 155.623 668.675 161.071C665.038 166.52 671.965 168.981 670.201 171.575C668.434 174.168 669.105 176.875 669.851 177.479C670.599 178.081 673.01 180.232 672.745 182.777C672.479 185.324 660.974 175.359 660.974 175.359C660.974 175.359 654.709 162.768 651.186 164.396Z" fill="#464240"/>
<path d="M669.678 217.988C669.678 217.988 668.763 222.427 645.195 216.823C645.195 216.823 653.097 214.199 669.678 217.988Z" fill="#EB4747"/>
<path d="M644.929 218.068C644.563 218.765 644.198 219.463 643.833 220.16C652.449 220.411 661.063 220.661 669.678 220.913C668.315 216.349 668.757 210.171 668.995 205.48C669.287 199.752 672.451 195.768 672.114 189.975C673.818 190.249 674.113 190.303 675.819 190.564C673.21 183.125 672.315 179.441 664.206 176.579C661.567 175.647 659.831 175.461 656.974 175.697C647.582 176.472 644.75 176.583 640.138 185.092C647.358 186.241 646.17 188.835 648.359 196.017C649.427 199.52 650.542 203.429 649.969 207.124C649.406 210.761 644.929 214.751 644.929 218.068Z" fill="#5F8CC9"/>
<path d="M659.915 178.381C656.071 177.655 656.89 175.517 656.89 175.517C656.89 175.517 657.067 174.311 657.137 172.787C657.155 172.396 657.166 171.984 657.165 171.567C657.162 170.933 657.131 170.285 657.058 169.676C656.743 167.097 664.035 168.635 664.035 168.635C664.035 168.635 663.615 173.856 664.621 175.42C665.625 176.985 663.759 179.107 659.915 178.381Z" fill="#EEA886"/>
<path d="M652.583 175.504C652.583 175.504 660.337 184.456 663.202 186.531C663.202 186.531 666.495 183.555 664.465 175.697C664.465 175.697 660.723 173.823 652.583 175.504Z" fill="#EEA886"/>
<path d="M652.794 153.959C652.794 153.959 648.769 161.716 652.762 169.064C656.755 176.412 664.601 165.864 665.109 164.627C665.617 163.389 668.306 156.389 662.955 154.263C657.603 152.135 653.934 151.853 652.794 153.959Z" fill="#EEA886"/>
<path d="M654.133 156.711C654.133 156.711 651.362 160.351 651.034 163.041C651.034 163.041 649.93 157.956 653.05 153.069C656.17 148.183 664.102 152.837 665.165 154.789C666.227 156.741 669.341 158.461 664.11 166.851C664.11 166.851 654.702 160.315 654.133 156.711Z" fill="#464240"/>
<path d="M660.567 169.839C660.567 169.839 659.869 171.365 657.137 172.787C657.155 172.396 657.166 171.984 657.165 171.567C657.165 171.567 659.013 171.343 660.567 169.839Z" fill="#A77860"/>
<path d="M619.877 211.088C619.877 211.088 617.962 211.939 617.055 211.553C616.147 211.167 614.743 211.092 614.301 211.091C613.709 211.089 611.855 210.429 611.889 211.152C611.919 211.876 614.897 212.381 615.506 212.608C616.115 212.833 613.683 214.172 613.457 214.767C613.231 215.361 615.975 219.264 617.523 218.152C619.071 217.04 619.91 214.82 620.226 214.68C620.541 214.539 621.387 213.915 621.387 213.915L619.877 211.088Z" fill="#EEA886"/>
<path d="M613.75 214.421C613.75 214.421 609.262 218.143 609.191 218.645C609.122 219.148 609.357 219.383 609.793 219.052C610.229 218.723 614.243 215.584 614.243 215.584C614.243 215.584 609.746 220.896 609.595 221.291C609.507 221.52 609.938 222 610.189 221.845C610.441 221.691 615.223 216.689 615.223 216.689C615.223 216.689 611.034 221.657 611.011 222.029C610.991 222.355 611.495 222.705 611.834 222.359C612.173 222.012 616.342 217.629 616.342 217.629C616.342 217.629 613.538 221.443 613.711 221.779C613.817 221.985 614.171 222.415 614.861 221.407C615.551 220.4 617.449 218.201 617.449 218.201L613.75 214.421Z" fill="#EEA886"/>
<path d="M667.513 237.645H654.295C654.295 237.645 642.121 238.621 641.145 230.092C640.167 221.563 645.147 216.827 645.147 216.827C645.147 216.827 651.579 218.54 657.194 219.896C660.007 219.299 663.395 218.909 667.351 219.011C667.351 219.011 691.155 226.876 690.439 231.017C690.439 231.017 680.482 225.693 667.513 237.645Z" fill="#FFC955"/>
<path d="M658.909 222.875L684.107 222.505L671.385 228.964L658.909 222.875Z" fill="#5E5853"/>
<path d="M666.737 219.656C666.737 219.656 661.069 221.851 654.121 219.867L653.794 217.272L668.101 218.068L666.737 219.656Z" fill="#5F8CC9"/>
<path d="M671.385 228.964L658.909 224.132V222.875L672.371 227.732L671.385 228.964Z" fill="#91887F"/>
<path d="M666.65 220.856C666.582 221.788 667.523 222.459 668.382 222.093L669.846 221.468C670.286 221.28 670.541 220.817 670.465 220.344C669.855 216.533 668.549 201.697 670.458 199.151C671.165 198.209 671.606 197.385 671.854 196.664C673.115 199.916 674.683 204.104 675.307 206.357L687.213 222.195L691.203 223.207C686.223 211.205 682.222 204.847 682.222 204.847C681.443 202.755 679.209 196.421 677.231 190.781C675.981 187.22 674.834 183.936 674.217 182.171C673.905 181.277 673.289 180.521 672.475 180.036C670.631 178.933 667.559 177.197 664.773 175.844C664.761 175.839 664.75 175.835 664.738 175.828C664.65 175.785 664.562 175.741 664.471 175.7C664.469 175.699 664.467 175.699 664.467 175.699C664.466 175.697 664.465 175.697 664.465 175.697C669.763 183.713 667.697 206.349 666.651 220.824C666.651 220.835 666.65 220.847 666.65 220.856Z" fill="#EDDAD3"/>
<path d="M646.983 176.381C645.286 176.644 641.078 180.728 638.845 184.852C636.293 189.557 633.698 194.916 631.751 196.679C628.174 199.92 618.161 211.376 617.683 211.099C617.502 210.992 620.43 214.52 620.802 214.685C620.989 214.767 637.262 200.665 638.826 198.517C640.307 196.48 644.271 187.932 645.457 188.12C645.457 188.12 645.457 188.123 645.459 188.125C645.459 188.127 645.461 188.128 645.461 188.128C645.551 188.323 646.993 191.449 648.359 196.017C648.382 196.093 648.405 196.169 648.427 196.245C649.369 199.432 649.282 202.892 648.773 206.779C648.387 209.715 646.197 214.511 644.875 216.847C644.717 217.127 644.757 217.66 644.929 218.067C645.031 218.31 645.181 218.508 645.362 218.573L650.141 220.344L651.263 220.76C652.071 221.06 652.919 220.903 653.553 220.443C654.071 220.067 654.449 219.485 654.539 218.783C655.602 210.611 656.946 202.261 658.017 199.116C662.718 185.316 656.179 174.945 656.179 174.945C656.179 174.945 648.473 175.825 646.983 176.381Z" fill="#EDDAD3"/>
<path d="M671.385 228.964L678.879 208.501L703.042 208.896L695.899 227.753L671.385 228.964Z" fill="#6E6760"/>
<path d="M686.611 217.553C685.874 219.028 686.095 220.633 687.109 221.139C688.121 221.645 689.538 220.861 690.275 219.387C691.013 217.913 690.79 216.308 689.778 215.801C688.766 215.295 687.347 216.08 686.611 217.553Z" fill="#807066"/>
<path d="M661.141 161.683C661.141 161.683 662.689 164.091 661.258 166.169C659.827 168.248 661.619 170.289 661.929 172.487C662.239 174.684 655.961 180.529 662.943 183.471C669.926 186.412 672.149 181.551 670.367 178.875C668.586 176.2 667.322 174.029 667.171 170.213C667.019 166.4 665.765 160.453 661.141 161.683Z" fill="#464240"/>
<path d="M627.011 151.687H641.579V164.471L639.355 162.245H627.011V151.687Z" fill="#FFCB55"/>
<path d="M545.234 313.724C545.234 313.724 513.482 343.939 528.927 367.464C544.374 390.991 551.602 370.384 551.602 370.384C551.602 370.384 562.049 373.537 546.543 344.531C539.235 330.859 545.234 313.724 545.234 313.724Z" fill="#BBD070"/>
<path d="M486.525 280.965C486.525 280.965 462.27 309.469 494.698 348.943C527.126 388.416 522.099 409.281 522.099 409.281C522.099 409.281 567.241 340.653 486.525 280.965Z" fill="#97A43C"/>
<path d="M529.411 397.365C544.502 400.416 532.291 356.537 509.662 343.16C487.033 329.781 466.787 328.477 454.111 315.595C454.111 315.595 455.099 382.337 529.411 397.365Z" fill="#48753A"/>
<path d="M430.789 416.611C430.789 416.611 431.481 414.897 431.594 414.637C431.707 414.38 432.374 413.959 433.179 413.541C433.987 413.125 435.265 412.921 435.401 412.999C435.538 413.073 435.711 413.087 435.889 413.449C436.065 413.809 436.014 414.212 436.014 414.212C436.014 414.212 436.442 414.555 436.345 415.047C436.345 415.047 436.731 415.388 436.527 415.927C436.527 415.927 436.897 416.271 436.715 416.649C436.715 416.649 436.049 417.072 435.846 417.301C435.645 417.529 434.198 418.315 432.694 418.855C432.694 418.855 431.101 418.885 430.789 416.611Z" fill="#EEA886"/>
<path d="M433.241 415.676C433.241 415.676 433.258 416.604 433.13 416.865C433.005 417.129 435.013 417.713 435.013 417.713C435.013 417.713 434.37 415.684 433.241 415.676Z" fill="#CF8C6C"/>
<path d="M395.753 506.403L396.63 503.67L400.342 504.27L399.787 506.736L395.753 506.403Z" fill="#3B3F66"/>
<path d="M426.179 506.08L426.387 507.581L430.45 506.904L430.234 504.661L426.179 506.08Z" fill="#555C94"/>
<path d="M417.378 463.992C417.378 463.992 416.781 467.253 416.085 470.873C415.963 471.504 415.842 472.145 415.717 472.783C415.038 476.271 414.351 479.625 414.098 480.32C413.522 481.899 401.079 504.697 401.079 504.697C401.079 504.697 395.991 504.309 395.801 503.656C395.801 503.656 406.233 478.9 406.173 477.997C406.115 477.096 407.447 451.717 407.447 451.717C407.447 451.717 417.103 462.527 417.378 463.992Z" fill="#354C70"/>
<path d="M423.063 450.267C423.063 450.267 427.931 475.197 428.347 477.105C428.765 479.013 430.609 504.552 430.609 504.552C430.609 504.552 429.514 506.808 425.473 505.958C425.473 505.958 419.962 478.52 419.498 477.6C417.695 474.032 408.85 456.745 407.993 454.279C407.135 451.811 407.387 448.932 407.387 448.932C407.387 448.932 413.959 445.239 423.063 450.267Z" fill="#354C70"/>
<path d="M421.017 417.976C421.017 417.976 423.153 423.299 423.689 423.143C424.226 422.984 430.362 415.779 430.362 415.779C430.362 415.779 433.17 419.283 432.793 419.684C432.27 420.244 425.022 432.293 424.025 432.076C423.027 431.859 418.571 424.493 418.571 424.493C418.571 424.493 418.319 418.939 421.017 417.976Z" fill="#DEB135"/>
<path d="M411.885 407.811C411.885 407.811 417.422 412.044 418.951 413.723C420.478 415.401 424.697 422.363 424.393 424.457C423.227 432.487 422.673 439.328 422.637 444.805C422.606 449.577 424.126 450.795 423.179 450.865C422.093 450.948 408.159 455.997 406.097 456.612C406.097 456.612 407.449 439.808 408.133 437.869C408.818 435.931 405.942 415.612 411.885 407.811Z" fill="#F2C344"/>
<path d="M447.549 399.784L448.79 406.043L450.033 412.303C450.033 412.303 442.923 410.077 434.855 411.68L434.307 408.919L433.755 406.141C441.825 404.539 447.549 399.784 447.549 399.784Z" fill="#D9D0C4"/>
<path d="M426.387 507.581C426.387 507.581 429.454 506.988 429.562 506.896C429.669 506.801 430.327 505.591 430.801 505.801C431.275 506.013 431.282 507.486 431.745 507.736C432.209 507.986 435.869 510.458 436.319 510.909C436.769 511.36 439.542 511.094 439.859 511.877C440.178 512.66 440.203 514.509 436.067 514.073C431.931 513.639 427.209 514.311 426.318 513.823C425.427 513.335 426.102 508.772 426.387 507.581Z" fill="#84BDFF"/>
<path d="M395.703 506.336C395.703 506.336 398.827 506.24 398.947 506.165C399.067 506.091 399.911 505 400.346 505.286C400.781 505.569 400.551 507.025 400.967 507.346C401.386 507.667 404.605 510.694 404.975 511.21C405.347 511.728 408.126 511.909 408.315 512.733C408.505 513.556 408.234 515.386 404.222 514.293C400.209 513.203 395.439 513.11 394.638 512.486C393.838 511.86 395.233 507.465 395.703 506.336Z" fill="#84BDFF"/>
<path d="M419.957 451.421C419.957 451.421 420.33 452.94 420.929 453.269C421.527 453.599 418.134 456.844 418.134 456.844C418.134 456.844 416.757 453.836 416.794 453.532C416.833 453.229 419.957 451.421 419.957 451.421Z" fill="#EEA987"/>
<path d="M409.425 414.375C409.425 414.375 405.451 433.279 405.125 435.215C404.817 437.047 416.777 454.536 416.777 454.536L420.753 452.177C420.753 452.177 411.103 434.629 411.118 433.829C411.13 433.028 415.749 417.789 415.749 417.789C415.749 417.789 417.679 414.471 414.255 412.859C410.831 411.248 409.425 414.375 409.425 414.375Z" fill="#FFD255"/>
<path d="M422.287 452.727C422.287 452.727 423.579 459.155 423.501 461.124C423.421 463.092 416.081 458.025 416.454 456.067L422.287 452.727Z" fill="#3C5780"/>
<path d="M411.885 407.811C411.885 407.811 421.97 418.828 421.349 417.607C419.134 413.252 417.589 412.517 417.621 411.705C417.645 411.083 417.887 409.272 417.929 408.665C418.007 407.511 418.093 406.572 418.093 406.572C418.093 406.572 413.085 399.539 413.306 401.936C413.526 404.332 411.885 407.811 411.885 407.811Z" fill="#EEA886"/>
<path d="M421.49 394.843C421.49 394.843 422.877 398.097 422.897 398.859C422.915 399.621 422.723 400.205 422.842 401.083C422.963 401.992 423.726 403.9 423.631 404.427C423.518 405.065 422.177 404.733 421.991 405.784C421.806 406.833 420.83 408.807 420.345 408.847C419.095 408.949 414.314 407 414.01 406C413.706 404.999 411.973 399.421 411.434 398.36C410.895 397.299 419.857 391.487 420.674 393.165C421.49 394.843 421.49 394.843 421.49 394.843Z" fill="#EEA886"/>
<path d="M409.302 397.257C408.67 394.496 411.845 394.156 411.845 394.156C411.845 394.156 413.911 391.748 418.858 392.035C423.805 392.32 423.05 398.776 423.05 398.776C423.05 398.776 419.627 398.264 418.139 398.641C418.139 398.641 417.957 401.399 418.119 402.081L416.253 401.915C416.253 401.915 416.461 399.468 415.566 399.352C414.67 399.236 414.369 404.532 412.701 405.699C412.701 405.699 412.683 405.325 412.475 404.959C412.142 404.376 411.625 403.4 411.179 402.257C410.451 400.657 409.626 398.672 409.302 397.257Z" fill="#16202E"/>
<path d="M416.809 399.944C416.809 399.944 416.115 398.076 414.474 399.288C413.281 400.171 414.509 403.323 415.67 403.307C416.831 403.292 417.302 401.576 416.809 399.944Z" fill="#EEA886"/>
<path d="M413.739 405.125C413.739 405.125 413.985 406.119 414.251 406.348C414.518 406.581 415.774 407.6 417.955 408.285L417.761 410.24C417.761 410.24 413.522 408.605 413.739 405.125Z" fill="#C48A6F"/>
<mask id="mask3_0_1" style="mask-type:luminance" maskUnits="userSpaceOnUse" x="431" y="411" width="6" height="8">
<path d="M435.981 418.525L436.693 418.187L433.466 411.343L431.658 412.193L434.393 417.999C434.697 418.643 435.335 418.831 435.981 418.525Z" fill="white"/>
</mask>
<g mask="url(#mask3_0_1)">
<path d="M431.734 411.343V418.831H431.658V411.343H431.734Z" fill="#96CBFF"/>
<path d="M431.813 411.343V418.831H431.734V411.343H431.813Z" fill="#95CAFF"/>
<path d="M431.89 411.343V418.831H431.813V411.343H431.89Z" fill="#94C9FF"/>
<path d="M431.967 411.343V418.831H431.89V411.343H431.967Z" fill="#93C9FF"/>
<path d="M432.045 411.343V418.831H431.967V411.343H432.045Z" fill="#92C8FF"/>
<path d="M432.123 411.343V418.831H432.045V411.343H432.123Z" fill="#91C7FF"/>
<path d="M432.199 411.343V418.831H432.123V411.343H432.199Z" fill="#90C6FF"/>
<path d="M432.278 411.343V418.831H432.199V411.343H432.278Z" fill="#8FC6FF"/>
<path d="M432.354 411.343V418.831H432.278V411.343H432.354Z" fill="#8EC5FF"/>
<path d="M432.433 411.343V418.831H432.354V411.343H432.433Z" fill="#8DC4FF"/>
<path d="M432.51 411.343V418.831H432.433V411.343H432.51Z" fill="#8CC3FF"/>
<path d="M432.587 411.343V418.831H432.51V411.343H432.587Z" fill="#8BC2FF"/>
<path d="M432.665 411.343V418.831H432.587V411.343H432.665Z" fill="#8AC2FF"/>
<path d="M432.742 411.343V418.831H432.665V411.343H432.742Z" fill="#89C1FF"/>
<path d="M432.819 411.343V418.831H432.742V411.343H432.819Z" fill="#88C0FF"/>
<path d="M432.898 411.343V418.831H432.819V411.343H432.898Z" fill="#87BFFF"/>
<path d="M432.974 411.343V418.831H432.898V411.343H432.974Z" fill="#86BFFF"/>
<path d="M433.051 411.343V418.831H432.974V411.343H433.051Z" fill="#85BEFF"/>
<path d="M433.129 411.343V418.831H433.051V411.343H433.129Z" fill="#84BDFF"/>
<path d="M433.207 411.343V418.831H433.129V411.343H433.207Z" fill="#83BCFF"/>
<path d="M433.285 411.343V418.831H433.207V411.343H433.285Z" fill="#82BBFF"/>
<path d="M433.361 411.343V418.831H433.285V411.343H433.361Z" fill="#81BBFF"/>
<path d="M433.439 411.343V418.831H433.361V411.343H433.439Z" fill="#80BAFF"/>
<path d="M433.517 411.343V418.831H433.439V411.343H433.517Z" fill="#7FB9FF"/>
<path d="M433.594 411.343V418.831H433.517V411.343H433.594Z" fill="#7EB8FF"/>
<path d="M433.671 411.343V418.831H433.594V411.343H433.671Z" fill="#7DB7FF"/>
<path d="M433.749 411.343V418.831H433.671V411.343H433.749Z" fill="#7CB7FF"/>
<path d="M433.827 411.343V418.831H433.749V411.343H433.827Z" fill="#7BB6FF"/>
<path d="M433.903 411.343V418.831H433.827V411.343H433.903Z" fill="#7AB5FF"/>
<path d="M433.981 411.343V418.831H433.903V411.343H433.981Z" fill="#79B4FF"/>
<path d="M434.059 411.343V418.831H433.981V411.343H434.059Z" fill="#78B4FF"/>
<path d="M434.135 411.343V418.831H434.059V411.343H434.135Z" fill="#77B3FF"/>
<path d="M434.214 411.343V418.831H434.135V411.343H434.214Z" fill="#76B2FF"/>
<path d="M434.29 411.343V418.831H434.214V411.343H434.29Z" fill="#74B1FF"/>
<path d="M434.369 411.343V418.831H434.29V411.343H434.369Z" fill="#73B0FF"/>
<path d="M434.446 411.343V418.831H434.369V411.343H434.446Z" fill="#72B0FF"/>
<path d="M434.523 411.343V418.831H434.446V411.343H434.523Z" fill="#71AFFF"/>
<path d="M434.601 411.343V418.831H434.523V411.343H434.601Z" fill="#70AEFF"/>
<path d="M434.679 411.343V418.831H434.601V411.343H434.679Z" fill="#6FADFF"/>
<path d="M434.755 411.343V418.831H434.679V411.343H434.755Z" fill="#6EADFF"/>
<path d="M434.834 411.343V418.831H434.755V411.343H434.834Z" fill="#6DACFF"/>
<path d="M434.91 411.343V418.831H434.834V411.343H434.91Z" fill="#6CABFF"/>
<path d="M434.989 411.343V418.831H434.91V411.343H434.989Z" fill="#6BAAFF"/>
<path d="M435.066 411.343V418.831H434.989V411.343H435.066Z" fill="#6AA9FF"/>
<path d="M435.143 411.343V418.831H435.066V411.343H435.143Z" fill="#69A9FF"/>
<path d="M435.221 411.343V418.831H435.143V411.343H435.221Z" fill="#68A8FF"/>
<path d="M435.298 411.343V418.831H435.221V411.343H435.298Z" fill="#67A7FF"/>
<path d="M435.375 411.343V418.831H435.298V411.343H435.375Z" fill="#66A6FF"/>
<path d="M435.454 411.343V418.831H435.375V411.343H435.454Z" fill="#65A6FF"/>
<path d="M435.53 411.343V418.831H435.454V411.343H435.53Z" fill="#64A5FF"/>
<path d="M435.609 411.343V418.831H435.53V411.343H435.609Z" fill="#63A4FF"/>
<path d="M435.685 411.343V418.831H435.609V411.343H435.685Z" fill="#62A3FF"/>
<path d="M435.763 411.343V418.831H435.685V411.343H435.763Z" fill="#61A2FF"/>
<path d="M435.841 411.343V418.831H435.763V411.343H435.841Z" fill="#60A2FF"/>
<path d="M435.918 411.343V418.831H435.841V411.343H435.918Z" fill="#5FA1FF"/>
<path d="M435.995 411.343V418.831H435.918V411.343H435.995Z" fill="#5EA0FF"/>
<path d="M436.073 411.343V418.831H435.995V411.343H436.073Z" fill="#5D9FFF"/>
<path d="M436.15 411.343V418.831H436.073V411.343H436.15Z" fill="#5C9EFF"/>
<path d="M436.229 411.343V418.831H436.15V411.343H436.229Z" fill="#5B9EFF"/>
<path d="M436.305 411.343V418.831H436.229V411.343H436.305Z" fill="#5A9DFF"/>
<path d="M436.383 411.343V418.831H436.305V411.343H436.383Z" fill="#599CFF"/>
<path d="M436.459 411.343V418.831H436.383V411.343H436.459Z" fill="#589BFF"/>
<path d="M436.538 411.343V418.831H436.459V411.343H436.538Z" fill="#579BFF"/>
<path d="M436.615 411.343V418.831H436.538V411.343H436.615Z" fill="#569AFF"/>
<path d="M436.693 411.343V418.831H436.615V411.343H436.693Z" fill="#5599FF"/>
</g>
<path d="M435.185 413.099C435.185 413.099 433.166 414.207 433.305 414.555C433.443 414.901 433.703 414.945 433.703 414.945L433.079 415.777C433.079 415.777 432.978 416.563 433.862 416.444C433.862 416.444 433.691 417.168 434.531 416.952C434.531 416.952 434.631 417.479 435.038 417.448C435.446 417.416 436.715 416.649 436.715 416.649C436.715 416.649 436.91 416.367 436.527 415.927C436.527 415.927 436.753 415.421 436.345 415.047C436.345 415.047 436.459 414.615 436.014 414.212C436.014 414.212 436.201 413.227 435.401 412.999C435.401 412.999 435.27 413.052 435.185 413.099Z" fill="#DB9C7C"/>
<mask id="mask4_0_1" style="mask-type:luminance" maskUnits="userSpaceOnUse" x="428" y="405" width="9" height="8">
<path d="M429.277 412.833L436.394 411.505L435.234 405.669L428.174 407.279L429.277 412.833Z" fill="white"/>
</mask>
<g mask="url(#mask4_0_1)">
<path d="M428.299 405.669V412.833H428.174V405.669H428.299Z" fill="#96CBFF"/>
<path d="M428.426 405.669V412.833H428.299V405.669H428.426Z" fill="#95CAFF"/>
<path d="M428.554 405.669V412.833H428.426V405.669H428.554Z" fill="#94C9FF"/>
<path d="M428.679 405.669V412.833H428.554V405.669H428.679Z" fill="#93C9FF"/>
<path d="M428.806 405.669V412.833H428.679V405.669H428.806Z" fill="#92C8FF"/>
<path d="M428.933 405.669V412.833H428.806V405.669H428.933Z" fill="#91C7FF"/>
<path d="M429.059 405.669V412.833H428.933V405.669H429.059Z" fill="#90C6FF"/>
<path d="M429.185 405.669V412.833H429.059V405.669H429.185Z" fill="#8FC6FF"/>
<path d="M429.311 405.669V412.833H429.185V405.669H429.311Z" fill="#8EC5FF"/>
<path d="M429.438 405.669V412.833H429.311V405.669H429.438Z" fill="#8DC4FF"/>
<path d="M429.566 405.669V412.833H429.438V405.669H429.566Z" fill="#8CC3FF"/>
<path d="M429.691 405.669V412.833H429.566V405.669H429.691Z" fill="#8BC2FF"/>
<path d="M429.818 405.669V412.833H429.691V405.669H429.818Z" fill="#8AC2FF"/>
<path d="M429.945 405.669V412.833H429.818V405.669H429.945Z" fill="#89C1FF"/>
<path d="M430.07 405.669V412.833H429.945V405.669H430.07Z" fill="#88C0FF"/>
<path d="M430.197 405.669V412.833H430.07V405.669H430.197Z" fill="#87BFFF"/>
<path d="M430.323 405.669V412.833H430.197V405.669H430.323Z" fill="#86BFFF"/>
<path d="M430.45 405.669V412.833H430.323V405.669H430.45Z" fill="#85BEFF"/>
<path d="M430.577 405.669V412.833H430.45V405.669H430.577Z" fill="#84BDFF"/>
<path d="M430.703 405.669V412.833H430.577V405.669H430.703Z" fill="#83BCFF"/>
<path d="M430.83 405.669V412.833H430.703V405.669H430.83Z" fill="#82BBFF"/>
<path d="M430.957 405.669V412.833H430.83V405.669H430.957Z" fill="#81BBFF"/>
<path d="M431.082 405.669V412.833H430.957V405.669H431.082Z" fill="#80BAFF"/>
<path d="M431.209 405.669V412.833H431.082V405.669H431.209Z" fill="#7FB9FF"/>
<path d="M431.335 405.669V412.833H431.209V405.669H431.335Z" fill="#7EB8FF"/>
<path d="M431.461 405.669V412.833H431.335V405.669H431.461Z" fill="#7DB7FF"/>
<path d="M431.587 405.669V412.833H431.461V405.669H431.587Z" fill="#7CB7FF"/>
<path d="M431.714 405.669V412.833H431.587V405.669H431.714Z" fill="#7BB6FF"/>
<path d="M431.841 405.669V412.833H431.714V405.669H431.841Z" fill="#7AB5FF"/>
<path d="M431.967 405.669V412.833H431.841V405.669H431.967Z" fill="#79B4FF"/>
<path d="M432.094 405.669V412.833H431.967V405.669H432.094Z" fill="#78B4FF"/>
<path d="M432.221 405.669V412.833H432.094V405.669H432.221Z" fill="#77B3FF"/>
<path d="M432.346 405.669V412.833H432.221V405.669H432.346Z" fill="#76B2FF"/>
<path d="M432.473 405.669V412.833H432.346V405.669H432.473Z" fill="#74B1FF"/>
<path d="M432.599 405.669V412.833H432.473V405.669H432.599Z" fill="#73B0FF"/>
<path d="M432.726 405.669V412.833H432.599V405.669H432.726Z" fill="#72B0FF"/>
<path d="M432.851 405.669V412.833H432.726V405.669H432.851Z" fill="#71AFFF"/>
<path d="M432.979 405.669V412.833H432.851V405.669H432.979Z" fill="#70AEFF"/>
<path d="M433.106 405.669V412.833H432.979V405.669H433.106Z" fill="#6FADFF"/>
<path d="M433.233 405.669V412.833H433.106V405.669H433.233Z" fill="#6EADFF"/>
<path d="M433.358 405.669V412.833H433.233V405.669H433.358Z" fill="#6DACFF"/>
<path d="M433.485 405.669V412.833H433.358V405.669H433.485Z" fill="#6CABFF"/>
<path d="M433.611 405.669V412.833H433.485V405.669H433.611Z" fill="#6BAAFF"/>
<path d="M433.737 405.669V412.833H433.611V405.669H433.737Z" fill="#6AA9FF"/>
<path d="M433.863 405.669V412.833H433.737V405.669H433.863Z" fill="#69A9FF"/>
<path d="M433.99 405.669V412.833H433.863V405.669H433.99Z" fill="#68A8FF"/>
<path d="M434.118 405.669V412.833H433.99V405.669H434.118Z" fill="#67A7FF"/>
<path d="M434.243 405.669V412.833H434.118V405.669H434.243Z" fill="#66A6FF"/>
<path d="M434.37 405.669V412.833H434.243V405.669H434.37Z" fill="#65A6FF"/>
<path d="M434.497 405.669V412.833H434.37V405.669H434.497Z" fill="#64A5FF"/>
<path d="M434.623 405.669V412.833H434.497V405.669H434.623Z" fill="#63A4FF"/>
<path d="M434.749 405.669V412.833H434.623V405.669H434.749Z" fill="#62A3FF"/>
<path d="M434.875 405.669V412.833H434.749V405.669H434.875Z" fill="#61A2FF"/>
<path d="M435.002 405.669V412.833H434.875V405.669H435.002Z" fill="#60A2FF"/>
<path d="M435.129 405.669V412.833H435.002V405.669H435.129Z" fill="#5FA1FF"/>
<path d="M435.255 405.669V412.833H435.129V405.669H435.255Z" fill="#5EA0FF"/>
<path d="M435.382 405.669V412.833H435.255V405.669H435.382Z" fill="#5D9FFF"/>
<path d="M435.509 405.669V412.833H435.382V405.669H435.509Z" fill="#5C9EFF"/>
<path d="M435.634 405.669V412.833H435.509V405.669H435.634Z" fill="#5B9EFF"/>
<path d="M435.761 405.669V412.833H435.634V405.669H435.761Z" fill="#5A9DFF"/>
<path d="M435.887 405.669V412.833H435.761V405.669H435.887Z" fill="#599CFF"/>
<path d="M436.013 405.669V412.833H435.887V405.669H436.013Z" fill="#589BFF"/>
<path d="M436.139 405.669V412.833H436.013V405.669H436.139Z" fill="#579BFF"/>
<path d="M436.267 405.669V412.833H436.139V405.669H436.267Z" fill="#569AFF"/>
<path d="M436.394 405.669V412.833H436.267V405.669H436.394Z" fill="#5599FF"/>
</g>
<path d="M431.654 414.597C431.654 414.597 433.234 414.553 434.107 414.905C434.303 414.987 434.481 415.1 434.481 415.315C434.481 415.527 434.171 415.799 433.489 415.853C432.805 415.908 431.947 416.291 431.947 416.291C431.947 416.291 431.229 416.14 431.654 414.597Z" fill="#EEA886"/>
<path d="M416.085 470.873C415.963 471.504 415.842 472.145 415.717 472.783L411.675 462.085C412.209 463.165 416.085 470.873 416.085 470.873Z" fill="#293B57"/>
<path d="M193.697 343.425H129.931C125.221 343.425 121.401 339.608 121.401 334.897V234.167C121.401 229.456 125.221 225.636 129.931 225.636H193.697C198.407 225.636 202.227 229.456 202.227 234.167V334.897C202.227 339.608 198.407 343.425 193.697 343.425Z" fill="#FFC955"/>
<path d="M193.641 301.705H189.453V333.576H193.641V301.705Z" fill="#E3F2FF"/>
<path d="M185.366 305.277H181.179V333.576H185.366V305.277Z" fill="#E3F2FF"/>
<path d="M176.377 309.923H172.189V333.576H176.377V309.923Z" fill="#E3F2FF"/>
<path d="M167.145 315.781H162.957V333.576H167.145V315.781Z" fill="#E3F2FF"/>
<path d="M137.969 312.005L137.062 311.681L144.958 289.527L162.083 284.999L168.238 260.681L181.455 254.849L184.414 235.941L185.366 236.091L182.325 255.517L169.058 261.375L162.879 285.784L145.695 290.331L137.969 312.005Z" fill="#E3F2FF"/>
<path d="M164.471 283.764C165.37 284.863 165.207 286.481 164.109 287.381C163.01 288.279 161.39 288.116 160.491 287.016C159.593 285.919 159.757 284.299 160.855 283.401C161.954 282.504 163.573 282.665 164.471 283.764Z" fill="#FFC955"/>
<path d="M161.161 283.775C160.269 284.504 160.135 285.82 160.865 286.712C161.594 287.604 162.911 287.736 163.802 287.008C164.694 286.279 164.827 284.96 164.098 284.069C163.37 283.179 162.051 283.045 161.161 283.775ZM164.413 287.753C163.11 288.819 161.183 288.625 160.119 287.321C159.054 286.019 159.247 284.092 160.55 283.027C161.853 281.963 163.779 282.156 164.845 283.459C165.909 284.761 165.717 286.688 164.413 287.753Z" fill="#E3F2FF"/>
<path d="M170.707 259.548C171.606 260.648 171.443 262.267 170.345 263.164C169.245 264.063 167.625 263.9 166.729 262.801C165.83 261.703 165.993 260.083 167.091 259.185C168.19 258.287 169.809 258.449 170.707 259.548Z" fill="#FFC955"/>
<path d="M167.397 259.559C166.505 260.287 166.371 261.605 167.101 262.496C167.83 263.388 169.147 263.52 170.039 262.792C170.93 262.063 171.063 260.745 170.334 259.853C169.606 258.961 168.287 258.829 167.397 259.559ZM170.649 263.539C169.346 264.603 167.419 264.409 166.354 263.107C165.29 261.803 165.483 259.876 166.786 258.812C168.089 257.747 170.014 257.94 171.079 259.243C172.145 260.547 171.953 262.473 170.649 263.539Z" fill="#E3F2FF"/>
<path d="M183.719 253.549C184.618 254.648 184.455 256.267 183.355 257.165C182.257 258.064 180.638 257.901 179.739 256.803C178.842 255.704 179.005 254.084 180.103 253.185C181.202 252.288 182.821 252.451 183.719 253.549Z" fill="#FFC955"/>
<path d="M180.407 253.559C179.517 254.288 179.385 255.605 180.114 256.497C180.842 257.389 182.159 257.521 183.051 256.792C183.943 256.064 184.074 254.745 183.346 253.855C182.618 252.963 181.299 252.831 180.407 253.559ZM183.661 257.539C182.358 258.604 180.431 258.409 179.366 257.107C178.302 255.804 178.495 253.877 179.798 252.813C181.102 251.748 183.027 251.941 184.093 253.244C185.158 254.547 184.963 256.473 183.661 257.539Z" fill="#E3F2FF"/>
<path d="M147.413 288.52C148.311 289.62 148.149 291.237 147.05 292.136C145.95 293.035 144.331 292.872 143.433 291.773C142.534 290.675 142.697 289.055 143.795 288.157C144.895 287.259 146.514 287.421 147.413 288.52Z" fill="#FFC955"/>
<path d="M144.102 288.531C143.21 289.259 143.077 290.576 143.806 291.468C144.534 292.359 145.853 292.492 146.743 291.764C147.635 291.035 147.769 289.717 147.039 288.825C146.311 287.933 144.993 287.801 144.102 288.531ZM147.354 292.511C146.051 293.575 144.125 293.381 143.061 292.077C141.995 290.776 142.189 288.848 143.491 287.784C144.794 286.72 146.721 286.912 147.786 288.215C148.85 289.519 148.657 291.445 147.354 292.511Z" fill="#E3F2FF"/>
<path d="M153.873 264.401H131.833C130.814 264.401 129.989 263.575 129.989 262.556V260.915C129.989 259.896 130.814 259.071 131.833 259.071H153.873C154.891 259.071 155.718 259.896 155.718 260.915V262.556C155.718 263.575 154.891 264.401 153.873 264.401Z" fill="#EBEBEB"/>
<path d="M153.873 255.083H131.833C130.814 255.083 129.989 254.257 129.989 253.237V251.597C129.989 250.579 130.814 249.752 131.833 249.752H153.873C154.891 249.752 155.718 250.579 155.718 251.597V253.237C155.718 254.257 154.891 255.083 153.873 255.083Z" fill="#EBEBEB"/>
<path d="M111.521 268.689C111.521 268.689 110.775 276.047 112.134 277.892C112.134 277.892 108.535 277.108 107.702 275.869C106.869 274.631 111.521 268.689 111.521 268.689Z" fill="#16202E"/>
<path d="M133.993 292.184C133.993 292.184 135.298 291.307 135.502 291.18C135.705 291.052 136.375 291.072 137.143 291.164C137.911 291.255 138.907 291.723 138.967 291.843C139.027 291.96 139.145 292.053 139.097 292.392C139.047 292.731 138.821 292.991 138.821 292.991C138.821 292.991 138.957 293.436 138.654 293.735C138.654 293.735 138.763 294.16 138.362 294.444C138.362 294.444 138.458 294.861 138.15 295.043C138.15 295.043 137.478 295.021 137.227 295.087C136.975 295.151 135.581 295.013 134.263 294.676C134.263 294.676 132.793 294.36 133.993 292.184Z" fill="#EEA886"/>
<path d="M136.215 292.792C136.215 292.792 135.822 293.479 135.614 293.616C135.406 293.752 136.619 295.057 136.619 295.057C136.619 295.057 137.035 293.293 136.215 292.792Z" fill="#CF8C6C"/>
<path d="M133.219 292.311C133.219 292.311 134.041 292.22 134.549 291.985C135.055 291.751 134.454 294.543 134.454 294.543C134.454 294.543 133.223 293.693 132.421 293.671C131.618 293.644 133.219 292.311 133.219 292.311Z" fill="#EEA886"/>
<path d="M99.1855 366.667C99.1855 366.667 101.753 370.42 102.648 371.217C102.648 371.217 104.441 372.147 104.495 372.889C104.601 374.293 104.675 375.121 102.318 375.187C99.9609 375.253 98.4885 375.18 98.0563 373.753C97.6256 372.325 96.8808 371.205 96.8808 371.205L96.7011 374.92H96.1699C96.1699 374.92 95.9323 371.197 95.8984 370.665C95.8661 370.135 95.5172 368.093 96.638 367.188C97.7584 366.285 99.1855 366.667 99.1855 366.667Z" fill="#162D40"/>
<path d="M102.99 371.409C102.99 371.409 101.716 371.769 100.201 371.388C98.6854 371.007 97.2308 367.379 96.788 367.076L96.3948 365.612H99.3489C99.3489 365.612 99.374 366.695 99.8505 367.623C100.328 368.549 102.99 371.409 102.99 371.409Z" fill="#162D40"/>
<path d="M115.853 365.264C115.853 365.264 116.238 366.175 116.965 367.123C117.499 367.817 119.157 370.675 119.887 370.873C120.617 371.072 122.874 371.471 123.073 372.732C123.273 373.993 123.371 374.889 121.147 374.989C118.923 375.088 117.463 375.221 116.401 373.661C115.339 372.101 113.646 370.972 113.646 370.972V375.043H112.783C112.783 375.043 112.386 370.807 112.153 370.509C111.921 370.209 111.323 366.957 113.381 365.264C115.439 363.571 115.853 365.264 115.853 365.264Z" fill="#162D40"/>
<path d="M119.887 370.873C119.887 370.873 117.895 371.371 117.131 370.873C116.369 370.376 113.773 365.989 112.913 365.727C112.913 365.727 113.746 364.036 115.853 365.264C115.853 365.264 119.322 370.143 119.887 370.873Z" fill="#162D40"/>
<path d="M98.0546 304.308C98.0546 304.308 95.2464 307.959 94.4849 312.292C93.7229 316.623 94.9354 331.16 94.9016 333.301C94.8688 335.443 93.0136 342.104 93.4104 346.136C93.8089 350.169 95.8948 367.003 95.8948 367.003L100.76 366.913C100.76 366.913 99.7854 348.751 100.034 347.059C100.283 345.365 101.076 338.164 101.175 337.465C101.275 336.769 106.718 318.337 106.718 315.215C106.718 312.092 104.826 299.215 98.0546 304.308Z" fill="#1D3B54"/>
<path d="M112.162 305.736C112.162 305.736 116.775 323.344 117.322 325.784C117.87 328.223 118.965 331.409 118.915 331.857C118.866 332.304 118.335 339.823 118.335 339.823L117.023 365.413H112.162C112.162 365.413 110.602 349.132 110.351 345.847C110.103 342.561 112.145 337.483 111.646 336.088C111.149 334.695 103.63 318.615 103.63 318.615C103.63 318.615 97.939 300.625 112.162 305.736Z" fill="#1D3B54"/>
<path d="M110.734 279.381C110.734 279.381 112.578 279.556 113.973 281.049C115.367 282.543 116.675 284.925 117.041 285.721C117.405 286.517 122.523 293.901 122.79 294.067C123.055 294.232 125.29 293.644 127.083 293.495C130.009 293.251 134.383 291.761 134.383 291.761L135.033 295.067C135.033 295.067 124.273 298.537 121.79 297.927C118.753 297.179 111.763 288.211 111.763 288.211C111.763 288.211 106.553 282.104 110.734 279.381Z" fill="#EDDAD3"/>
<path d="M107.514 278.088C107.514 278.088 109.903 279.216 110.734 279.381C111.565 279.548 114.783 283.731 115.347 285.257C115.911 286.784 115.347 289.073 114.186 291.761C113.023 294.451 114.121 295.347 113.589 298.036C113.058 300.724 113.058 308.053 113.158 309.547C113.257 311.04 97.7922 313.857 94.7057 311.136C94.7057 311.136 96.7942 304.247 99.2698 301.66C99.8037 301.1 99.748 297.371 99.3828 296.443C99.0172 295.513 94.9016 288.576 94.9016 288.576C94.9016 288.576 94.5989 281.54 96.3948 280.145C97.9546 278.933 102.207 278.501 102.97 278.236C103.734 277.971 105.955 277.855 107.514 278.088Z" fill="#EDDAD3"/>
<path d="M108.278 283.415L109.73 281.715L108.469 277.237C108.469 277.237 108.046 279.731 108.278 283.415Z" fill="#D1C0BA"/>
<path d="M99.1751 279.381C99.1751 279.381 96.1631 278.519 94.4365 281.839C92.7109 285.157 93.1423 286.949 92.7437 288.443C92.3469 289.937 90.7532 299.927 90.6537 300.359C90.5537 300.791 89.0276 305.869 89.2256 307.428C89.4251 308.988 90.8532 320.804 90.7871 321.203C90.7204 321.601 93.5407 320.821 93.5407 320.821C93.5407 320.821 93.4251 308.756 93.5251 307.76C93.624 306.765 93.7229 301.537 94.4704 300.192C95.2177 298.848 97.0589 290.633 97.4573 289.788C97.8557 288.941 101.714 280.46 99.1751 279.381Z" fill="#EEA886"/>
<path d="M108.655 275.329C108.655 275.329 108.179 279.713 108.278 281.141C108.278 281.141 105.794 283.629 102.97 278.236C102.97 278.236 104.159 276.013 103.265 272.985C102.37 269.956 108.655 275.329 108.655 275.329Z" fill="#EEA886"/>
<path d="M108.278 281.141V283.415L105.609 281.049L108.278 281.141Z" fill="#EEA886"/>
<path d="M108.278 283.415L107.091 281.947L103.094 277.963L101.597 278.628L108.278 283.415Z" fill="#D1C0BA"/>
<path d="M109.73 281.715L111.561 282.22L108.469 277.237L109.73 281.715Z" fill="#FAE6DE"/>
<path d="M107.091 281.947L105.419 284.625L101.535 278.532L103.199 277.685L107.091 281.947Z" fill="#FAE6DE"/>
<path d="M115.606 292.753C115.606 292.753 116.203 288.777 115.567 286.36C115.567 286.36 115.217 288.311 114.361 291.348L115.606 292.753Z" fill="#D1C0BA"/>
<path d="M97.0432 292.225C97.0432 292.225 98.6959 286.759 98.7932 286.459C98.7932 286.459 98.6803 291.483 98.0475 293.969C98.0475 293.969 97.4391 292.908 97.0432 292.225Z" fill="#D1C0BA"/>
<path d="M158.591 264.829L132.587 297.592L133.494 298.292L158.591 264.829Z" fill="#54281A"/>
<path d="M138.767 291.809C138.767 291.809 136.817 291.625 136.747 291.937C136.679 292.247 136.843 292.403 136.843 292.403L136.005 292.692C136.005 292.692 135.558 293.196 136.237 293.536C136.237 293.536 135.773 293.963 136.467 294.213C136.467 294.213 136.286 294.631 136.587 294.804C136.89 294.976 138.15 295.043 138.15 295.043C138.15 295.043 138.422 294.937 138.362 294.444C138.362 294.444 138.763 294.195 138.654 293.735C138.654 293.735 138.943 293.487 138.821 292.991C138.821 292.991 139.422 292.384 138.967 291.843C138.967 291.843 138.85 291.816 138.767 291.809Z" fill="#DB9C7C"/>
<path d="M135.565 291.179C135.565 291.179 136.698 291.903 137.145 292.568C137.245 292.72 137.315 292.884 137.214 293.033C137.111 293.184 136.763 293.228 136.257 292.941C135.749 292.652 134.961 292.512 134.961 292.512C134.961 292.512 134.526 292.064 135.565 291.179Z" fill="#EEA886"/>
<path d="M106.641 260.408C106.641 260.408 111.041 260.295 111.849 265.503C112.659 270.712 110.789 275.288 110.055 276.021C109.321 276.755 104.922 276.199 103.886 273.493C102.848 270.788 101.331 268.816 101.559 266.489C101.787 264.163 101.231 260.32 106.641 260.408Z" fill="#EEA886"/>
<path d="M112.037 267.475C112.037 267.475 113.215 260.977 107.374 259.815C101.534 258.652 99.486 262.647 98.9303 265.023C98.3724 267.4 99.0313 274.1 99.0313 274.1C99.0313 274.1 102.925 277.513 105.25 278.399C105.25 278.399 103.303 271.268 104.037 266.16C104.037 266.16 108.783 266.905 111.934 266.128C111.934 266.128 112.029 267.195 112.037 267.475Z" fill="#16202E"/>
<path d="M108.555 276.308C108.555 276.308 107.027 276.297 104.95 274.947C104.95 274.947 106.411 276.784 108.45 277.456C108.45 277.456 108.57 276.541 108.555 276.308Z" fill="#A77860"/>
<path d="M101.922 322.42L84.9301 325.195L82.8792 312.628L99.8703 309.853L101.922 322.42Z" fill="#366E9C"/>
<path d="M90.1994 324.976C90.1994 324.976 89.9322 324.543 89.9093 324.296C89.9093 324.296 89.8984 323.845 89.8724 323.524C89.8636 323.423 89.8541 323.335 89.8417 323.279C89.7906 323.043 89.6084 322.54 89.6432 321.94C89.6802 321.34 90.4989 318.791 90.4989 318.791L92.0032 318.843L93.4182 318.689C93.4182 318.689 95.1276 321.953 95.1593 322.515C95.1614 322.569 95.163 322.625 95.1593 322.677C95.1396 323.156 94.9234 323.504 94.8844 323.755C94.8704 323.847 94.6604 324.749 94.413 324.875C94.0693 325.047 93.7604 325.025 93.5328 324.895C93.5328 324.895 92.8437 325.203 92.3541 325.069C92.3541 325.069 91.7297 325.373 91.1666 325.033C91.1666 325.033 90.498 325.272 90.1994 324.976Z" fill="#EEA886"/>
<path d="M99.175 279.381C99.175 279.381 96.163 278.519 94.4365 281.839C92.7109 285.157 92.7204 286.573 92.4885 288.193C92.2708 289.725 90.1666 298.815 90.0666 299.247C89.9677 299.679 89.275 305.36 89.2256 307.428C89.189 309.001 89.5578 319.311 89.4912 319.709C89.425 320.108 94.2584 319.012 94.2584 319.012C94.2584 319.012 93.7229 309.504 93.8234 308.508C93.9218 307.512 94.1344 302.548 94.6213 301.088C95.1926 299.376 97.4494 290.741 97.848 289.895C98.2464 289.048 101.714 280.46 99.175 279.381Z" fill="#EDDAD3"/>
<path d="M254.849 368.748L255.162 365.831C255.162 365.831 251.047 365.8 250.566 366.147C250.566 366.147 250.915 368.597 250.958 368.964C251.003 369.333 254.849 368.748 254.849 368.748Z" fill="#5C544D"/>
<path d="M247.855 374.848C252.751 374.807 255.113 375.141 255.637 374.347C256.162 373.553 254.878 368.487 254.878 368.487C254.878 368.487 253.718 368.908 250.918 368.653C250.918 368.653 249.699 370.131 248.521 370.775C247.342 371.417 245.489 371.673 244.791 372.339C244.29 372.82 242.959 374.891 247.855 374.848Z" fill="#3C4145"/>
<path d="M227.287 368.748L227.598 365.831C227.598 365.831 223.483 365.8 223.003 366.147C223.003 366.147 223.351 368.597 223.397 368.964C223.439 369.333 227.287 368.748 227.287 368.748Z" fill="#5C544D"/>
<path d="M220.291 374.848C225.186 374.72 227.549 375.141 228.073 374.347C228.598 373.553 227.314 368.487 227.314 368.487C227.314 368.487 226.222 368.937 223.355 368.653C223.355 368.653 222.135 370.131 220.957 370.775C219.779 371.417 215.441 371.947 214.743 372.613C214.239 373.093 213.403 375.029 220.291 374.848Z" fill="#3C4145"/>
<path d="M249.199 302.875C249.199 302.875 251.246 308.956 250.977 314.197C250.707 319.437 252.035 325.173 252.578 330.648C253.183 336.751 255.662 351.2 255.751 354.464C255.842 357.731 255.366 368.155 255.366 368.155L250.407 368.271C250.407 368.271 246.242 343.009 245.165 340.432C244.086 337.853 238.735 319.477 238.557 317.416C238.377 315.353 249.199 302.875 249.199 302.875Z" fill="#DBD8E3"/>
<path d="M228.351 303.957C228.351 303.957 225.627 318.321 225.269 321.528C224.909 324.736 224.67 337.052 224.49 339.056C224.31 341.061 223.29 365.292 222.333 368.271H228.673C228.673 368.271 233.538 350.655 233.538 342.321C233.538 333.988 237.298 324.204 239.726 318.705C242.153 313.207 247.707 313.076 249.199 302.875C249.199 302.875 230.373 300.721 228.351 303.957Z" fill="#DBD8E3"/>
<path d="M241.235 254.865C241.235 254.865 236.238 252.999 233.935 256.803C231.63 260.607 231.853 268.223 234.371 269.159C236.891 270.096 240.675 269.605 241.963 267.225C243.254 264.845 244.418 261.404 244.362 259.104C244.306 256.804 242.549 255.529 241.235 254.865Z" fill="#EEA886"/>
<path d="M235.21 268.925C235.21 268.925 235.413 270.236 235.078 270.88C234.745 271.525 241.365 271.543 241.365 271.543C241.365 271.543 241.901 268.033 242.921 265.068C243.939 262.101 235.21 268.925 235.21 268.925Z" fill="#EEA886"/>
<path d="M242.921 265.068C242.921 265.068 242.463 265.82 240.599 265.528C238.734 265.236 236.458 262.755 235.679 262.483C234.901 262.209 234.895 261.753 234.895 261.753L234.406 262.464L233.579 262.517C233.579 262.517 234.334 260.297 233.195 259.392C232.058 258.487 234.377 252.208 240.358 254.299C240.358 254.299 244.645 255.145 244.903 257.751C245.179 260.524 243.949 263.765 242.921 265.068Z" fill="#FCCCA2"/>
<path d="M234.686 270.803C234.686 270.803 234.707 269.569 235.266 269.452C235.825 269.333 241.434 268.793 242.121 269.064V270.5C242.121 270.5 240.798 271.313 234.686 270.803Z" fill="#E2D2CA"/>
<path d="M235.017 260.803C235.123 260.364 236.235 259.112 236.663 260.453C237.09 261.793 236.018 263.597 235.421 263.443C234.823 263.288 234.753 261.913 235.017 260.803Z" fill="#EEA886"/>
<path d="M234.686 270.803C234.686 270.803 231.611 271.908 228.049 273.423C228.049 273.423 223.951 274.952 223.509 279.477C223.273 281.879 220.715 294.625 220.234 295.705C219.755 296.784 214.085 314.112 213.885 314.471C213.685 314.832 218.513 316.836 218.833 316.676C219.153 316.515 224.325 300.871 224.843 299.712C224.843 299.712 227.821 290.332 227.901 288.933C227.901 288.933 227.986 292.919 228.145 294.037C228.305 295.156 225.498 316.877 225.578 317.476C225.658 318.076 238.335 318.837 243.409 318.277C248.483 317.719 252.577 316.552 252.577 316.552C252.577 316.552 248.585 299.409 248.707 297.509C248.974 293.367 250.358 285.569 250.358 285.569L254.495 293.367L249.199 306.992L250.411 311.131C250.411 311.131 260.253 296.261 260.571 294.903C260.893 293.545 260.09 291.815 259.57 290.696C259.051 289.577 255.639 281.065 254.841 279.865C254.042 278.667 252.691 273.868 249.429 272.532C246.699 271.415 242.121 270.5 242.121 270.5L234.686 270.803Z" fill="#63A4FF"/>
<path d="M227.919 322.324L204.737 316.38L208.885 300.208L232.067 306.151L227.919 322.324Z" fill="#F25F54"/>
<path d="M211.866 318.008C211.866 318.008 211.203 319.077 210.961 319.384C210.721 319.688 211.557 319.881 211.914 319.571C212.274 319.263 211.866 318.008 211.866 318.008Z" fill="#C98462"/>
<path d="M216.693 321.664C216.693 321.664 217.085 321.256 217.17 320.995C217.17 320.995 217.286 320.505 217.39 320.164C217.423 320.055 217.455 319.96 217.481 319.903C217.591 319.659 217.909 319.156 218.011 318.495C218.114 317.835 218.402 314.868 218.402 314.868L216.606 314.415L215.165 314.111C215.165 314.111 212.047 317.22 211.881 317.825C211.865 317.884 211.85 317.943 211.843 318C211.751 318.525 211.903 318.955 211.887 319.236C211.882 319.34 211.898 320.371 212.137 320.564C212.47 320.832 212.81 320.883 213.09 320.792C213.09 320.792 213.765 321.289 214.329 321.259C214.329 321.259 214.938 321.736 215.627 321.5C215.627 321.5 216.299 321.916 216.693 321.664Z" fill="#DE9D7D"/>
<path d="M223.703 302.905C223.703 302.905 219.589 315.367 218.833 316.676C218.833 316.676 215.815 316.041 213.885 314.471L218.402 301.024L223.703 302.905Z" fill="#63A4FF"/>
<path d="M594.879 322.336C594.879 322.336 610.153 277.545 581.007 263.66C551.861 249.773 527.115 269.847 522.441 280.708C517.766 291.569 519.003 311.319 522.99 325.091C526.977 338.861 526.397 359.827 517.735 366.839C509.074 373.849 498.335 385.495 498.866 409.199C499.197 423.904 556.734 371.581 556.734 371.581L594.879 322.336Z" fill="#252E3B"/>
<path d="M553.927 375.616C553.927 375.616 529.971 380.925 520.462 386.483C510.955 392.039 489.839 417.6 489.839 428.591C489.839 439.581 582.182 449.848 582.182 449.848L599.685 513.748C599.685 513.748 646.359 502.358 651.915 492.912C657.473 483.465 634.189 415.765 630.203 402.064C626.138 388.087 609.409 378.341 589.961 375.616C570.513 372.892 553.927 375.616 553.927 375.616Z" fill="#FFD255"/>
<path d="M588.299 375.396C588.299 375.396 587.762 404.512 564.67 405.376C541.578 406.239 546.386 377.449 546.386 377.449C546.386 377.449 563.275 370.607 588.299 375.396Z" fill="#EEA886"/>
<path d="M598.069 287.535C598.069 287.535 606.237 334.364 582.975 368.192C558.885 403.227 598.069 287.535 598.069 287.535Z" fill="#252E3B"/>
<path d="M583.345 354.809C583.345 354.809 581.738 368.736 584.419 377.399C587.101 386.06 549.113 386.299 549.133 379.177C549.158 371.087 553.019 364.328 549.382 350.46C545.743 336.592 583.345 354.809 583.345 354.809Z" fill="#EEA886"/>
<path d="M553.877 356.585C553.877 356.585 565.871 369.081 581.209 357.889C581.209 357.889 579.942 365.876 568.91 366.907C557.879 367.939 553.877 356.585 553.877 356.585Z" fill="#A77860"/>
<path d="M568.898 271.297C568.898 271.297 599.21 280.268 594.879 322.336C590.549 364.403 570.753 362.236 568.898 362.547C567.041 362.855 543.533 364.403 536.11 313.365C528.686 262.328 568.898 271.297 568.898 271.297Z" fill="#EEA886"/>
<path d="M561.071 290.056C561.071 290.056 577.543 316.257 594.879 322.336C594.879 322.336 604.346 278.371 565.249 269.159C526.153 259.948 532.277 313.565 535.194 327.863C535.194 327.863 543.338 306.828 561.071 290.056Z" fill="#252E3B"/>
<path d="M538.979 286.109C538.979 286.109 547.65 269.319 562.29 268.568C576.931 267.819 585.638 280.519 585.638 280.519C585.638 280.519 579.922 266.219 562.309 266.219C544.695 266.219 538.979 286.109 538.979 286.109Z" fill="#88C0FF"/>
<path d="M598.583 418.169L608.863 513.74H473.563L463.283 418.169H598.583Z" fill="#5FA0FF"/>
<path d="M470.179 509.282H604.293L594.141 414.889H460.026L470.179 509.282ZM605.607 510.46H469.121L458.714 413.709H595.201L605.607 510.46Z" fill="#5FA0FF"/>
<path d="M544.467 464.409C545.682 470.355 542.909 475.944 538.273 476.892C533.637 477.839 528.894 473.788 527.679 467.843C526.463 461.896 529.237 456.308 533.873 455.36C538.51 454.413 543.251 458.464 544.467 464.409Z" fill="#5189DB"/>
<path d="M596.073 504.133H621.321V513.74H596.073V504.133Z" fill="#5FA0FF"/>
<path d="M517.57 186.335C506.743 186.335 497.935 195.143 497.935 205.969C497.935 216.797 506.743 225.605 517.57 225.605C528.398 225.605 537.206 216.797 537.206 205.969C537.206 195.143 528.398 186.335 517.57 186.335ZM517.57 226.785C506.093 226.785 496.755 217.448 496.755 205.969C496.755 194.492 506.093 185.155 517.57 185.155C529.049 185.155 538.386 194.492 538.386 205.969C538.386 217.448 529.049 226.785 517.57 226.785Z" fill="#64A4FF"/>
<path d="M46.348 334.981L44.6475 334.489C46.4417 328.275 48.0563 324.488 48.124 324.331L49.75 325.027C49.7333 325.065 48.1084 328.88 46.348 334.981ZM42.2923 355.648L40.5313 355.468C40.886 352.004 41.4219 348.443 42.124 344.887L43.8593 345.229C43.1683 348.732 42.6412 352.237 42.2923 355.648ZM40.7213 376.865C40.2636 373.433 40.0199 369.832 40 366.165L41.7699 366.155C41.7891 369.748 42.0276 373.273 42.4756 376.631L40.7213 376.865ZM46.7907 397.409C45.2427 394.253 43.9407 390.877 42.9208 387.38L44.6204 386.885C45.6109 390.287 46.8756 393.565 48.3792 396.631L46.7907 397.409ZM59.5813 414.588C56.9303 412.125 54.5104 409.436 52.3923 406.593L53.8115 405.536C55.8661 408.292 58.2125 410.901 60.7855 413.292L59.5813 414.588ZM275.401 415.205L275.177 413.451C278.889 412.976 282.375 412.709 285.838 412.629L285.877 414.399C282.478 414.476 279.05 414.739 275.401 415.205ZM306.725 416.513C303.305 415.723 299.821 415.144 296.37 414.797L296.547 413.036C300.071 413.392 303.63 413.981 307.123 414.788L306.725 416.513ZM254.715 419.365L254.277 417.651C258.086 416.676 261.479 415.885 264.65 415.231L265.009 416.963C261.865 417.612 258.498 418.399 254.715 419.365ZM326.519 423.525C323.257 421.981 319.989 420.621 316.802 419.483L317.399 417.816C320.638 418.975 323.962 420.356 327.277 421.925L326.519 423.525ZM234.273 425.004L233.793 423.301C235.275 422.885 236.741 422.469 238.191 422.06C240.158 421.504 242.095 420.956 244.011 420.42L244.487 422.125C242.574 422.66 240.637 423.208 238.674 423.763C237.222 424.173 235.755 424.587 234.273 425.004ZM77.374 426.472C74.0589 424.889 70.9156 423.121 68.0328 421.212L69.0093 419.736C71.8245 421.599 74.8948 423.328 78.1371 424.876L77.374 426.472ZM213.718 430.437L213.305 428.716C216.553 427.937 219.91 427.085 223.57 426.111L224.026 427.821C220.351 428.799 216.979 429.655 213.718 430.437ZM97.5495 433.487C93.9833 432.623 90.5313 431.62 87.288 430.504L87.8636 428.832C91.0537 429.927 94.4537 430.915 97.9661 431.765L97.5495 433.487ZM192.869 434.715L192.575 432.968C195.986 432.397 199.485 431.743 202.975 431.023L203.333 432.757C199.819 433.48 196.299 434.137 192.869 434.715ZM118.587 436.963C114.958 436.604 111.401 436.143 108.014 435.591L108.298 433.844C111.649 434.389 115.17 434.847 118.762 435.203L118.587 436.963ZM171.75 437.403L171.597 435.641C175.089 435.337 178.626 434.959 182.113 434.513L182.337 436.269C178.827 436.716 175.265 437.099 171.75 437.403ZM139.839 438.299C136.343 438.2 132.763 438.037 129.203 437.811L129.314 436.045C132.854 436.269 136.413 436.432 139.89 436.531L139.839 438.299ZM150.487 438.407L150.473 436.637C154.002 436.608 157.559 436.511 161.045 436.347L161.127 438.115C157.621 438.279 154.039 438.377 150.487 438.407Z" fill="#C2BEBC"/>
<path d="M280.513 42.3546L280.323 40.5946C283.906 40.2106 287.501 40.0106 291.009 39.9999L291.013 41.7693C287.567 41.7799 284.034 41.9773 280.513 42.3546ZM311.869 43.996C308.435 43.244 304.947 42.6773 301.502 42.3093L301.689 40.5493C305.199 40.924 308.751 41.5013 312.247 42.2666L311.869 43.996ZM259.873 46.4839L259.383 44.7826C262.871 43.7773 266.362 42.9186 269.757 42.2333L270.107 43.968C266.759 44.644 263.317 45.4906 259.873 46.4839ZM331.874 50.472C328.483 49.0386 325.258 47.8266 322.013 46.7653L322.563 45.0839C325.855 46.1599 329.126 47.3893 332.565 48.8426L331.874 50.472ZM240.043 53.6933L239.338 52.0693C242.671 50.6213 246.002 49.288 249.238 48.104L249.846 49.7653C246.642 50.9373 243.345 52.2573 240.043 53.6933ZM350.819 59.8359C347.354 57.9359 344.29 56.324 341.455 54.908L342.245 53.324C345.102 54.7506 348.185 56.3733 351.67 58.2839L350.819 59.8359ZM221.101 63.0733L220.243 61.524C223.415 59.7733 226.589 58.1066 229.677 56.5733L230.463 58.1573C227.399 59.68 224.249 61.3333 221.101 63.0733ZM369.349 70.1813C366.349 68.5506 363.371 66.8746 360.069 65.0106L360.939 63.4693C364.234 65.3293 367.206 67.0026 370.194 68.6266L369.349 70.1813ZM482.403 73.7533L482.322 71.9853C485.843 71.82 489.425 71.7826 492.998 71.8773L492.953 73.6466C489.421 73.5533 485.883 73.5893 482.403 73.7533ZM202.966 73.9853L202.003 72.4999C205.034 70.5346 208.07 68.6346 211.025 66.8533L211.939 68.368C209.001 70.14 205.981 72.0293 202.966 73.9853ZM513.95 75.6693C510.462 75.0946 506.942 74.6319 503.483 74.2973L503.654 72.5359C507.151 72.8746 510.713 73.3426 514.237 73.924L513.95 75.6693ZM461.485 76.3213L461.137 74.5866C464.607 73.8893 468.155 73.3159 471.679 72.8839L471.895 74.6399C468.414 75.0679 464.911 75.632 461.485 76.3213ZM388.585 79.3733C385.469 78.1573 382.274 76.7519 378.815 75.0759L379.587 73.4839C383.003 75.1386 386.157 76.5253 389.229 77.724L388.585 79.3733ZM534.527 80.4106C531.13 79.4093 527.693 78.5053 524.309 77.7226L524.707 75.9986C528.125 76.7893 531.598 77.7026 535.027 78.7133L534.527 80.4106ZM441.106 81.9373L440.607 80.2386C441.742 79.9053 442.901 79.54 444.05 79.1546C446.262 78.412 448.517 77.7159 450.754 77.0866L451.234 78.7906C449.025 79.412 446.797 80.0986 444.613 80.8319C443.443 81.2253 442.263 81.5973 441.106 81.9373ZM409.266 84.7946C405.807 84.3626 402.267 83.6653 398.743 82.7253L399.199 81.016C402.646 81.9346 406.107 82.616 409.485 83.0386L409.266 84.7946ZM419.974 85.3453L419.935 83.576C423.366 83.5 426.878 83.1706 430.374 82.5959L430.661 84.3426C427.083 84.9306 423.489 85.2666 419.974 85.3453ZM554.437 87.512C551.167 86.144 547.849 84.8573 544.577 83.688L545.173 82.0213C548.474 83.2013 551.821 84.5 555.119 85.8786L554.437 87.512ZM573.518 96.64C570.409 94.9626 567.235 93.348 564.089 91.8413L564.853 90.244C568.026 91.764 571.225 93.392 574.358 95.0826L573.518 96.64ZM591.654 107.552C588.743 105.609 585.735 103.703 582.713 101.884L583.625 100.368C586.673 102.2 589.703 104.123 592.637 106.08L591.654 107.552ZM608.591 120.233C608.562 120.207 605.606 117.583 600.313 113.648L601.369 112.228C606.731 116.213 609.738 118.885 609.769 118.912L608.591 120.233Z" fill="#C2BEBC"/>
<path d="M388.099 442.943L343.621 430.011L356.954 425.989L388.099 442.943Z" fill="#D6D6D6"/>
<path d="M388.099 442.943L371.474 426.244L361.241 428.323L388.099 442.943Z" fill="#E8E8E8"/>
<path d="M353.849 432.983L354.207 438.129L388.099 442.943L353.849 432.983Z" fill="#C2C2C2"/>
<path d="M164.231 103.405L203.438 81.4786L189.961 80.5893L164.231 103.405Z" fill="#D6D6D6"/>
<path d="M164.231 103.405L176.295 83.9999L186.419 83.7306L164.231 103.405Z" fill="#E8E8E8"/>
<path d="M194.421 86.5213L195.206 91.4613L164.231 103.405L194.421 86.5213Z" fill="#C2C2C2"/>
<rect x="40" y="8" width="47.1719" height="26" rx="2" fill="#404040"/>
<rect x="40.5" y="8.5" width="46.1719" height="25" rx="1.5" stroke="black" stroke-opacity="0.14902"/>
<path d="M49.3438 18C49.2969 17.6042 49.1068 17.2969 48.7734 17.0781C48.4401 16.8594 48.0313 16.75 47.5469 16.75C47.1927 16.75 46.8828 16.8073 46.6172 16.9219C46.3542 17.0365 46.1484 17.194 46 17.3945C45.8542 17.5951 45.7813 17.8229 45.7813 18.0781C45.7813 18.2917 45.832 18.4753 45.9336 18.6289C46.0378 18.7799 46.1706 18.9062 46.332 19.0078C46.4935 19.1068 46.6628 19.1888 46.8398 19.2539C47.0169 19.3164 47.1797 19.3672 47.3281 19.4062L48.1406 19.625C48.349 19.6797 48.5807 19.7552 48.8359 19.8516C49.0938 19.9479 49.3398 20.0794 49.5742 20.2461C49.8112 20.4102 50.0065 20.6211 50.1602 20.8789C50.3138 21.1367 50.3906 21.4531 50.3906 21.8281C50.3906 22.2604 50.2773 22.651 50.0508 23C49.8268 23.349 49.4987 23.6263 49.0664 23.832C48.6367 24.0378 48.1146 24.1406 47.5 24.1406C46.9271 24.1406 46.431 24.0482 46.0117 23.8633C45.5951 23.6784 45.2669 23.4206 45.0273 23.0898C44.7904 22.7591 44.6563 22.375 44.625 21.9375H45.625C45.651 22.2396 45.7526 22.4896 45.9297 22.6875C46.1094 22.8828 46.3359 23.0286 46.6094 23.125C46.8854 23.2187 47.1823 23.2656 47.5 23.2656C47.8698 23.2656 48.2018 23.2057 48.4961 23.0859C48.7904 22.9635 49.0234 22.7943 49.1953 22.5781C49.3672 22.3594 49.4531 22.1042 49.4531 21.8125C49.4531 21.5469 49.3789 21.3307 49.2305 21.1641C49.082 20.9974 48.8867 20.862 48.6445 20.7578C48.4023 20.6536 48.1406 20.5625 47.8594 20.4844L46.875 20.2031C46.25 20.0234 45.7552 19.7669 45.3906 19.4336C45.026 19.1003 44.8438 18.6641 44.8438 18.125C44.8438 17.6771 44.9648 17.2865 45.207 16.9531C45.4518 16.6172 45.7799 16.3568 46.1914 16.1719C46.6055 15.9844 47.0677 15.8906 47.5781 15.8906C48.0938 15.8906 48.5521 15.9831 48.9531 16.168C49.3542 16.3503 49.6719 16.6003 49.9062 16.918C50.1432 17.2357 50.2682 17.5964 50.2813 18H49.3438ZM54.374 24.125C53.7959 24.125 53.2972 23.9974 52.8779 23.7422C52.4613 23.4844 52.1396 23.125 51.9131 22.6641C51.6891 22.2005 51.5771 21.6615 51.5771 21.0469C51.5771 20.4323 51.6891 19.8906 51.9131 19.4219C52.1396 18.9505 52.4548 18.5833 52.8584 18.3203C53.2646 18.0547 53.7386 17.9219 54.2803 17.9219C54.5928 17.9219 54.9014 17.974 55.2061 18.0781C55.5107 18.1823 55.7881 18.3516 56.0381 18.5859C56.2881 18.8177 56.4873 19.125 56.6357 19.5078C56.7842 19.8906 56.8584 20.362 56.8584 20.9219V21.3125H52.2334V20.5156H55.9209C55.9209 20.1771 55.8532 19.875 55.7178 19.6094C55.585 19.3437 55.3949 19.1341 55.1475 18.9805C54.9027 18.8268 54.6136 18.75 54.2803 18.75C53.9131 18.75 53.5954 18.8411 53.3271 19.0234C53.0615 19.2031 52.8571 19.4375 52.7139 19.7266C52.5706 20.0156 52.499 20.3255 52.499 20.6562V21.1875C52.499 21.6406 52.5771 22.0247 52.7334 22.3398C52.8923 22.6523 53.1123 22.8906 53.3936 23.0547C53.6748 23.2161 54.0016 23.2969 54.374 23.2969C54.6162 23.2969 54.835 23.263 55.0303 23.1953C55.2282 23.125 55.3988 23.0208 55.542 22.8828C55.6852 22.7422 55.7959 22.5677 55.874 22.3594L56.7646 22.6094C56.6709 22.9115 56.5133 23.1771 56.292 23.4062C56.0706 23.6328 55.7972 23.8099 55.4717 23.9375C55.1462 24.0625 54.7803 24.125 54.374 24.125ZM60.6982 24.125C60.1357 24.125 59.6514 23.9922 59.2451 23.7266C58.8389 23.4609 58.5264 23.0951 58.3076 22.6289C58.0889 22.1628 57.9795 21.6302 57.9795 21.0312C57.9795 20.4219 58.0915 19.8841 58.3154 19.418C58.542 18.9492 58.8571 18.5833 59.2607 18.3203C59.667 18.0547 60.141 17.9219 60.6826 17.9219C61.1045 17.9219 61.4847 18 61.8232 18.1562C62.1618 18.3125 62.4391 18.5312 62.6553 18.8125C62.8714 19.0937 63.0055 19.4219 63.0576 19.7969H62.1357C62.0654 19.5234 61.9092 19.2812 61.667 19.0703C61.4274 18.8568 61.1045 18.75 60.6982 18.75C60.3389 18.75 60.0238 18.8437 59.7529 19.0312C59.4847 19.2161 59.2751 19.4779 59.124 19.8164C58.9756 20.1523 58.9014 20.5469 58.9014 21C58.9014 21.4635 58.9743 21.8672 59.1201 22.2109C59.2686 22.5547 59.4769 22.8216 59.7451 23.0117C60.016 23.2018 60.3337 23.2969 60.6982 23.2969C60.9378 23.2969 61.1553 23.2552 61.3506 23.1719C61.5459 23.0885 61.7113 22.9688 61.8467 22.8125C61.9821 22.6562 62.0785 22.4687 62.1357 22.25H63.0576C63.0055 22.6042 62.8766 22.9232 62.6709 23.207C62.4678 23.4883 62.1982 23.7122 61.8623 23.8789C61.529 24.043 61.141 24.125 60.6982 24.125ZM67.0146 18V18.7812H63.9053V18H67.0146ZM64.8115 16.5625H65.7334V22.2812C65.7334 22.5417 65.7712 22.737 65.8467 22.8672C65.9248 22.9948 66.0238 23.0807 66.1436 23.125C66.266 23.1667 66.3949 23.1875 66.5303 23.1875C66.6318 23.1875 66.7152 23.1823 66.7803 23.1719C66.8454 23.1589 66.8975 23.1484 66.9365 23.1406L67.124 23.9687C67.0615 23.9922 66.9743 24.0156 66.8623 24.0391C66.7503 24.0651 66.6084 24.0781 66.4365 24.0781C66.1761 24.0781 65.9209 24.0221 65.6709 23.9102C65.4235 23.7982 65.2178 23.6276 65.0537 23.3984C64.8923 23.1693 64.8115 22.8802 64.8115 22.5312V16.5625ZM68.4014 24V18H69.3232V24H68.4014ZM68.8701 17C68.6904 17 68.5355 16.9388 68.4053 16.8164C68.2777 16.694 68.2139 16.5469 68.2139 16.375C68.2139 16.2031 68.2777 16.056 68.4053 15.9336C68.5355 15.8112 68.6904 15.75 68.8701 15.75C69.0498 15.75 69.2035 15.8112 69.3311 15.9336C69.4613 16.056 69.5264 16.2031 69.5264 16.375C69.5264 16.5469 69.4613 16.694 69.3311 16.8164C69.2035 16.9388 69.0498 17 68.8701 17ZM73.4492 24.125C72.9076 24.125 72.4323 23.9961 72.0234 23.7383C71.6172 23.4805 71.2995 23.1198 71.0703 22.6562C70.8438 22.1927 70.7305 21.651 70.7305 21.0312C70.7305 20.4062 70.8438 19.8607 71.0703 19.3945C71.2995 18.9284 71.6172 18.5664 72.0234 18.3086C72.4323 18.0508 72.9076 17.9219 73.4492 17.9219C73.9909 17.9219 74.4648 18.0508 74.8711 18.3086C75.2799 18.5664 75.5977 18.9284 75.8242 19.3945C76.0534 19.8607 76.168 20.4062 76.168 21.0312C76.168 21.651 76.0534 22.1927 75.8242 22.6562C75.5977 23.1198 75.2799 23.4805 74.8711 23.7383C74.4648 23.9961 73.9909 24.125 73.4492 24.125ZM73.4492 23.2969C73.8607 23.2969 74.1992 23.1914 74.4648 22.9805C74.7305 22.7695 74.9271 22.4922 75.0547 22.1484C75.1823 21.8047 75.2461 21.4323 75.2461 21.0312C75.2461 20.6302 75.1823 20.2565 75.0547 19.9102C74.9271 19.5638 74.7305 19.2839 74.4648 19.0703C74.1992 18.8568 73.8607 18.75 73.4492 18.75C73.0378 18.75 72.6992 18.8568 72.4336 19.0703C72.168 19.2839 71.9714 19.5638 71.8438 19.9102C71.7161 20.2565 71.6523 20.6302 71.6523 21.0312C71.6523 21.4323 71.7161 21.8047 71.8438 22.1484C71.9714 22.4922 72.168 22.7695 72.4336 22.9805C72.6992 23.1914 73.0378 23.2969 73.4492 23.2969ZM78.4971 20.3906V24H77.5752V18H78.4658V18.9375H78.5439C78.6846 18.6328 78.8981 18.388 79.1846 18.2031C79.471 18.0156 79.8408 17.9219 80.2939 17.9219C80.7002 17.9219 81.0557 18.0052 81.3604 18.1719C81.665 18.3359 81.902 18.5859 82.0713 18.9219C82.2406 19.2552 82.3252 19.6771 82.3252 20.1875V24H81.4033V20.25C81.4033 19.7786 81.2809 19.4115 81.0361 19.1484C80.7913 18.8828 80.4554 18.75 80.0283 18.75C79.734 18.75 79.471 18.8138 79.2393 18.9414C79.0101 19.069 78.8291 19.2552 78.6963 19.5C78.5635 19.7448 78.4971 20.0417 78.4971 20.3906Z" fill="white"/>
<defs>
<linearGradient id="paint0_linear_0_1" x1="555.981" y1="340.323" x2="761.838" y2="340.323" gradientUnits="userSpaceOnUse">
<stop stop-color="#96CBFF"/>
<stop offset="1" stop-color="#5599FF"/>
</linearGradient>
<linearGradient id="paint1_linear_0_1" x1="151.742" y1="213.823" x2="304.654" y2="198.113" gradientUnits="userSpaceOnUse">
<stop stop-color="#96CBFF"/>
<stop offset="1" stop-color="#5599FF"/>
</linearGradient>
</defs>
</svg>
