<?xml version="1.0" standalone="no"?>
<svg xmlns:xlink="http://www.w3.org/1999/xlink" id="wave" style="transform:rotate(180deg); transition: 0.3s" viewBox="0 0 1440 490" version="1.1" xmlns="http://www.w3.org/2000/svg"><defs><linearGradient id="sw-gradient-0" x1="0" x2="0" y1="1" y2="0"><stop stop-color="rgba(14, 122, 82, 1)" offset="0%"/><stop stop-color="rgba(75, 193, 100, 1)" offset="100%"/></linearGradient></defs><path style="transform:translate(0, 0px); opacity:1" fill="url(#sw-gradient-0)" d="M0,49L26.7,114.3C53.3,180,107,310,160,326.7C213.3,343,267,245,320,179.7C373.3,114,427,82,480,122.5C533.3,163,587,278,640,285.8C693.3,294,747,196,800,171.5C853.3,147,907,196,960,236.8C1013.3,278,1067,310,1120,326.7C1173.3,343,1227,343,1280,285.8C1333.3,229,1387,114,1440,114.3C1493.3,114,1547,229,1600,253.2C1653.3,278,1707,212,1760,163.3C1813.3,114,1867,82,1920,130.7C1973.3,180,2027,310,2080,302.2C2133.3,294,2187,147,2240,122.5C2293.3,98,2347,196,2400,261.3C2453.3,327,2507,359,2560,326.7C2613.3,294,2667,196,2720,196C2773.3,196,2827,294,2880,318.5C2933.3,343,2987,294,3040,285.8C3093.3,278,3147,310,3200,334.8C3253.3,359,3307,376,3360,383.8C3413.3,392,3467,392,3520,392C3573.3,392,3627,392,3680,326.7C3733.3,261,3787,131,3813,65.3L3840,0L3840,490L3813.3,490C3786.7,490,3733,490,3680,490C3626.7,490,3573,490,3520,490C3466.7,490,3413,490,3360,490C3306.7,490,3253,490,3200,490C3146.7,490,3093,490,3040,490C2986.7,490,2933,490,2880,490C2826.7,490,2773,490,2720,490C2666.7,490,2613,490,2560,490C2506.7,490,2453,490,2400,490C2346.7,490,2293,490,2240,490C2186.7,490,2133,490,2080,490C2026.7,490,1973,490,1920,490C1866.7,490,1813,490,1760,490C1706.7,490,1653,490,1600,490C1546.7,490,1493,490,1440,490C1386.7,490,1333,490,1280,490C1226.7,490,1173,490,1120,490C1066.7,490,1013,490,960,490C906.7,490,853,490,800,490C746.7,490,693,490,640,490C586.7,490,533,490,480,490C426.7,490,373,490,320,490C266.7,490,213,490,160,490C106.7,490,53,490,27,490L0,490Z"/><defs><linearGradient id="sw-gradient-1" x1="0" x2="0" y1="1" y2="0"><stop stop-color="rgba(14, 122, 82, 1)" offset="0%"/><stop stop-color="rgba(75, 193, 100, 1)" offset="100%"/></linearGradient></defs><path style="transform:translate(0, 50px); opacity:0.9" fill="url(#sw-gradient-1)" d="M0,0L26.7,8.2C53.3,16,107,33,160,65.3C213.3,98,267,147,320,163.3C373.3,180,427,163,480,204.2C533.3,245,587,343,640,383.8C693.3,425,747,408,800,400.2C853.3,392,907,392,960,375.7C1013.3,359,1067,327,1120,261.3C1173.3,196,1227,98,1280,49C1333.3,0,1387,0,1440,65.3C1493.3,131,1547,261,1600,285.8C1653.3,310,1707,229,1760,163.3C1813.3,98,1867,49,1920,89.8C1973.3,131,2027,261,2080,269.5C2133.3,278,2187,163,2240,106.2C2293.3,49,2347,49,2400,65.3C2453.3,82,2507,114,2560,179.7C2613.3,245,2667,343,2720,318.5C2773.3,294,2827,147,2880,122.5C2933.3,98,2987,196,3040,204.2C3093.3,212,3147,131,3200,155.2C3253.3,180,3307,310,3360,367.5C3413.3,425,3467,408,3520,359.3C3573.3,310,3627,229,3680,196C3733.3,163,3787,180,3813,187.8L3840,196L3840,490L3813.3,490C3786.7,490,3733,490,3680,490C3626.7,490,3573,490,3520,490C3466.7,490,3413,490,3360,490C3306.7,490,3253,490,3200,490C3146.7,490,3093,490,3040,490C2986.7,490,2933,490,2880,490C2826.7,490,2773,490,2720,490C2666.7,490,2613,490,2560,490C2506.7,490,2453,490,2400,490C2346.7,490,2293,490,2240,490C2186.7,490,2133,490,2080,490C2026.7,490,1973,490,1920,490C1866.7,490,1813,490,1760,490C1706.7,490,1653,490,1600,490C1546.7,490,1493,490,1440,490C1386.7,490,1333,490,1280,490C1226.7,490,1173,490,1120,490C1066.7,490,1013,490,960,490C906.7,490,853,490,800,490C746.7,490,693,490,640,490C586.7,490,533,490,480,490C426.7,490,373,490,320,490C266.7,490,213,490,160,490C106.7,490,53,490,27,490L0,490Z"/></svg>