<svg width="1440" height="846" viewBox="0 0 1440 846" fill="none" xmlns="http://www.w3.org/2000/svg">
<g clip-path="url(#clip0_1_3)">
<rect width="1440" height="846" fill="white"/>
<path d="M680.08 -324.104C698.426 -329.671 717.493 -332.5 736.665 -332.5H1804.48C1983.57 -332.5 2128.75 -187.32 2128.75 -8.23214V179.737C2128.75 328.922 1973.99 427.76 1838.64 365.017V365.017C1761.41 329.217 1670.08 345.075 1609.44 404.813L1494.84 517.702C1481.92 530.426 1471.82 545.718 1465.19 562.591L1433.23 643.876C1409.36 704.607 1327.64 714.64 1289.78 661.489V661.489C1244.42 597.808 1144.08 629.264 1140.62 707.371V707.371C1137.8 771.15 1067.12 809.219 1013.1 775.193L920.245 716.704C878.265 690.263 880.386 628.375 924.077 604.869L1006.84 560.34C1059.61 531.95 1029.82 451.552 971.29 464.41V464.41C963.534 466.114 956.276 469.583 950.079 474.547L905.359 510.375C805.185 590.63 667.641 474.132 730.316 362.117L766.614 297.242C784.721 264.881 768.03 224.088 732.432 213.701L518.164 151.179C468.721 136.752 484.56 63.0366 535.565 70.192V70.192C582.165 76.7293 601.988 12.9493 559.892 -8.07999L379.191 -98.3524C318.902 -128.47 326.369 -216.778 390.858 -236.346L680.08 -324.104Z" fill="#00AE87"/>
<path d="M902.58 -500.604C920.926 -506.171 939.993 -509 959.165 -509H2026.98C2206.07 -509 2351.25 -363.82 2351.25 -184.732V3.23682C2351.25 152.422 2196.49 251.26 2061.14 188.517V188.517C1983.91 152.717 1892.58 168.575 1831.94 228.313L1717.34 341.202C1704.42 353.926 1694.32 369.218 1687.69 386.091L1655.73 467.376C1631.86 528.107 1550.14 538.14 1512.28 484.989V484.989C1466.92 421.308 1366.58 452.764 1363.12 530.871V530.871C1360.3 594.65 1289.62 632.719 1235.6 598.693L1142.74 540.204C1100.77 513.763 1102.89 451.875 1146.58 428.369L1229.34 383.84C1282.11 355.45 1252.32 275.052 1193.79 287.91V287.91C1186.03 289.614 1178.78 293.083 1172.58 298.047L1127.86 333.875C1027.68 414.13 890.141 297.632 952.816 185.617L989.114 120.742C1007.22 88.3814 990.53 47.5878 954.932 37.2007L740.664 -25.3209C691.221 -39.7479 707.06 -113.463 758.065 -106.308V-106.308C804.665 -99.7707 824.488 -163.551 782.392 -184.58L601.691 -274.852C541.402 -304.97 548.869 -393.278 613.358 -412.846L902.58 -500.604Z" fill="#005845"/>
</g>
<defs>
<clipPath id="clip0_1_3">
<rect width="1440" height="846" fill="white"/>
</clipPath>
</defs>
</svg>
